G04*
G04 #@! TF.GenerationSoftware,Altium Limited,Altium Designer,22.4.2 (48)*
G04*
G04 Layer_Color=8388736*
%FSLAX25Y25*%
%MOIN*%
G70*
G04*
G04 #@! TF.SameCoordinates,C5E8B2FC-1F32-4D00-A684-16CD1971BE58*
G04*
G04*
G04 #@! TF.FilePolarity,Negative*
G04*
G01*
G75*
%ADD20R,0.04331X0.05945*%
%ADD21R,0.03150X0.03347*%
%ADD22R,0.42717X0.34449*%
%ADD23R,0.04528X0.13976*%
%ADD24R,0.05512X0.08465*%
%ADD25C,0.20591*%
%ADD26C,0.06496*%
%ADD27R,0.07874X0.07874*%
%ADD28C,0.07874*%
%ADD29R,0.06496X0.06496*%
%ADD30C,0.07382*%
%ADD31R,0.07382X0.07382*%
%ADD32C,0.05252*%
%ADD33R,0.05252X0.05252*%
%ADD34R,0.07382X0.07382*%
%ADD35R,0.05118X0.05118*%
%ADD36C,0.05118*%
%ADD37R,0.05118X0.05118*%
%ADD38R,0.05315X0.05315*%
%ADD39C,0.05315*%
%ADD40C,0.05150*%
%ADD41R,0.05150X0.05150*%
%ADD42C,0.09390*%
%ADD43R,0.09390X0.09390*%
%ADD44C,0.10039*%
%ADD45C,0.07087*%
%ADD46R,0.07087X0.07087*%
%ADD47C,0.08150*%
%ADD48R,0.08150X0.08150*%
%ADD49C,0.05000*%
%ADD50R,0.05000X0.05000*%
%ADD51C,0.08091*%
%ADD52C,0.02953*%
D20*
X160110Y140000D02*
D03*
X167000D02*
D03*
X185055Y162000D02*
D03*
X191945D02*
D03*
X234000Y394000D02*
D03*
X240890D02*
D03*
X267555Y412000D02*
D03*
X274445D02*
D03*
X240890D02*
D03*
X234000D02*
D03*
X145445Y392000D02*
D03*
X138555D02*
D03*
X267555Y310500D02*
D03*
X274445D02*
D03*
X240890D02*
D03*
X234000D02*
D03*
X274445Y334000D02*
D03*
X267555D02*
D03*
X240890Y331000D02*
D03*
X234000D02*
D03*
X274445Y353000D02*
D03*
X267555D02*
D03*
X240890D02*
D03*
X234000D02*
D03*
X274445Y373500D02*
D03*
X267555D02*
D03*
X274445Y394000D02*
D03*
X267555D02*
D03*
Y430500D02*
D03*
X274445D02*
D03*
X234000D02*
D03*
X240890D02*
D03*
X267555Y450000D02*
D03*
X274445D02*
D03*
X234000D02*
D03*
X240890D02*
D03*
X191945Y140000D02*
D03*
X185055D02*
D03*
X160110Y162000D02*
D03*
X167000D02*
D03*
X141945D02*
D03*
X135055D02*
D03*
X117000D02*
D03*
X110110D02*
D03*
X141945Y182000D02*
D03*
X135055D02*
D03*
X117000D02*
D03*
X110110D02*
D03*
X135055Y202000D02*
D03*
X141945D02*
D03*
X117000D02*
D03*
X110110D02*
D03*
X135055Y225000D02*
D03*
X141945D02*
D03*
X117000D02*
D03*
X110110D02*
D03*
X141945Y245500D02*
D03*
X135055D02*
D03*
X117000D02*
D03*
X110110D02*
D03*
X141945Y267000D02*
D03*
X135055D02*
D03*
X117000D02*
D03*
X110110D02*
D03*
X433945Y238000D02*
D03*
X427055D02*
D03*
X433945Y194000D02*
D03*
X427055D02*
D03*
X478890Y294000D02*
D03*
X472000D02*
D03*
X427055Y215500D02*
D03*
X433945D02*
D03*
X145445Y373500D02*
D03*
X138555D02*
D03*
Y355000D02*
D03*
X145445D02*
D03*
D21*
X239315Y373500D02*
D03*
X234000D02*
D03*
D22*
X492000Y462677D02*
D03*
D23*
X502000Y420945D02*
D03*
X492000D02*
D03*
X482000D02*
D03*
D24*
X443882Y171500D02*
D03*
X429118D02*
D03*
D25*
X113000Y502000D02*
D03*
X514500Y113500D02*
D03*
X113000D02*
D03*
X515000Y502000D02*
D03*
D26*
X167500Y442000D02*
D03*
X172500Y447500D02*
D03*
X177500Y442000D02*
D03*
X136000Y442063D02*
D03*
X141000Y447563D02*
D03*
X146000Y442063D02*
D03*
X476000Y391000D02*
D03*
X481000Y396500D02*
D03*
X486000Y391000D02*
D03*
X360870Y437500D02*
D03*
D27*
X306665Y338236D02*
D03*
D28*
Y367764D02*
D03*
X386587Y338236D02*
D03*
X366587D02*
D03*
X406587D02*
D03*
Y367764D02*
D03*
X386587D02*
D03*
X366587D02*
D03*
D29*
X321500Y437500D02*
D03*
D30*
X396500Y283000D02*
D03*
X386500D02*
D03*
X376500D02*
D03*
X326500Y146500D02*
D03*
X336500D02*
D03*
X346500D02*
D03*
X356500D02*
D03*
X443000Y263000D02*
D03*
Y273000D02*
D03*
X266500Y283000D02*
D03*
X276500D02*
D03*
X332000D02*
D03*
X322000Y293000D02*
D03*
Y283000D02*
D03*
X312000Y293000D02*
D03*
Y283000D02*
D03*
X246500Y146500D02*
D03*
X236500D02*
D03*
X276500D02*
D03*
X113000Y389000D02*
D03*
Y379000D02*
D03*
Y369000D02*
D03*
Y453000D02*
D03*
Y443000D02*
D03*
Y433000D02*
D03*
X184000Y271500D02*
D03*
D31*
X366500Y283000D02*
D03*
Y146500D02*
D03*
X286500Y283000D02*
D03*
X332000Y293000D02*
D03*
X226500Y146500D02*
D03*
X286500D02*
D03*
D32*
X216500Y243874D02*
D03*
X226500D02*
D03*
X236500D02*
D03*
X246500D02*
D03*
X256500D02*
D03*
X266500D02*
D03*
X276500D02*
D03*
X286500D02*
D03*
X296500D02*
D03*
X306500D02*
D03*
X316500D02*
D03*
X326500D02*
D03*
X336500D02*
D03*
X346500D02*
D03*
X356500D02*
D03*
X366500D02*
D03*
X376500D02*
D03*
X386500D02*
D03*
X396500D02*
D03*
X406500D02*
D03*
Y183126D02*
D03*
X396500D02*
D03*
X386500D02*
D03*
X376500D02*
D03*
X366500D02*
D03*
X356500D02*
D03*
X346500D02*
D03*
X336500D02*
D03*
X326500D02*
D03*
X316500D02*
D03*
X306500D02*
D03*
X296500D02*
D03*
X286500D02*
D03*
X276500D02*
D03*
X266500D02*
D03*
X256500D02*
D03*
X246500D02*
D03*
X236500D02*
D03*
X226500D02*
D03*
D33*
X216500D02*
D03*
D34*
X443000Y283000D02*
D03*
X113000Y359000D02*
D03*
Y423000D02*
D03*
X184000Y261500D02*
D03*
D35*
X181500Y182000D02*
D03*
D36*
Y228063D02*
D03*
X220874Y395000D02*
D03*
X217874Y361000D02*
D03*
X441000Y324000D02*
D03*
D37*
X213000Y395000D02*
D03*
X210000Y361000D02*
D03*
X433126Y324000D02*
D03*
D38*
X215000Y436000D02*
D03*
X434000Y363000D02*
D03*
D39*
X201220Y436000D02*
D03*
X447780Y363000D02*
D03*
D40*
X208374Y334000D02*
D03*
Y324000D02*
D03*
Y314000D02*
D03*
Y304000D02*
D03*
X177626D02*
D03*
Y314000D02*
D03*
Y324000D02*
D03*
D41*
Y334000D02*
D03*
D42*
X448000Y469000D02*
D03*
Y449000D02*
D03*
Y429000D02*
D03*
X411000Y409000D02*
D03*
Y429000D02*
D03*
Y449000D02*
D03*
D43*
X448000Y409000D02*
D03*
X411000Y469000D02*
D03*
D44*
X487500Y231000D02*
D03*
Y251000D02*
D03*
X487000Y172000D02*
D03*
Y192000D02*
D03*
X132500Y318000D02*
D03*
Y298000D02*
D03*
D45*
X507500Y395000D02*
D03*
D46*
Y339488D02*
D03*
D47*
X180000Y474000D02*
D03*
X170000D02*
D03*
D48*
X160000D02*
D03*
D49*
X146000Y413000D02*
D03*
X141000D02*
D03*
D50*
X136000D02*
D03*
D51*
X176500Y373500D02*
D03*
X186500D02*
D03*
Y403500D02*
D03*
X176500D02*
D03*
D52*
X199000D02*
D03*
X194399Y364075D02*
D03*
X166200Y148000D02*
D03*
X131200Y382700D02*
D03*
X243600D02*
D03*
X250000Y452010D02*
D03*
X133800Y353700D02*
D03*
X232700Y402500D02*
D03*
X234000Y405300D02*
D03*
X274445D02*
D03*
X185055Y170245D02*
D03*
X111410Y166500D02*
D03*
X221500Y179500D02*
D03*
X110110Y217600D02*
D03*
X430100Y187400D02*
D03*
X135055Y142300D02*
D03*
X171300Y190000D02*
D03*
X141945Y166245D02*
D03*
X172100Y196400D02*
D03*
X195500Y311126D02*
D03*
X252400Y171800D02*
D03*
X471900Y284800D02*
D03*
X381800Y171800D02*
D03*
X135055Y213700D02*
D03*
M02*
