G04*
G04 #@! TF.GenerationSoftware,Altium Limited,Altium Designer,22.4.2 (48)*
G04*
G04 Layer_Physical_Order=1*
G04 Layer_Color=255*
%FSLAX25Y25*%
%MOIN*%
G70*
G04*
G04 #@! TF.SameCoordinates,C5E8B2FC-1F32-4D00-A684-16CD1971BE58*
G04*
G04*
G04 #@! TF.FilePolarity,Positive*
G04*
G01*
G75*
%ADD14C,0.01000*%
%ADD15R,0.03740X0.05354*%
%ADD16R,0.02559X0.02756*%
%ADD17R,0.42126X0.33858*%
%ADD18R,0.03937X0.13386*%
%ADD19R,0.04921X0.07874*%
%ADD27R,0.07874X0.07874*%
%ADD28C,0.07874*%
%ADD53C,0.05000*%
%ADD54C,0.02500*%
%ADD55C,0.04300*%
%ADD56C,0.20000*%
%ADD57C,0.05906*%
%ADD58R,0.05906X0.05906*%
%ADD59C,0.06791*%
%ADD60R,0.06791X0.06791*%
%ADD61C,0.04661*%
%ADD62R,0.04661X0.04661*%
%ADD63R,0.06791X0.06791*%
%ADD64R,0.04528X0.04528*%
%ADD65C,0.04528*%
%ADD66R,0.04528X0.04528*%
%ADD67R,0.04724X0.04724*%
%ADD68C,0.04724*%
%ADD69C,0.04559*%
%ADD70R,0.04559X0.04559*%
%ADD71C,0.08799*%
%ADD72R,0.08799X0.08799*%
%ADD73C,0.09449*%
%ADD74C,0.06496*%
%ADD75R,0.06496X0.06496*%
%ADD76C,0.07559*%
%ADD77R,0.07559X0.07559*%
%ADD78C,0.04409*%
%ADD79R,0.04409X0.04409*%
%ADD80C,0.07500*%
%ADD81C,0.02362*%
G36*
X510489Y511486D02*
X509497Y510980D01*
X508160Y510009D01*
X506991Y508840D01*
X506020Y507503D01*
X505269Y506031D01*
X504759Y504459D01*
X504500Y502826D01*
Y502250D01*
X515000D01*
Y502000D01*
X515250D01*
Y491500D01*
X515826D01*
X517459Y491758D01*
X519031Y492269D01*
X520503Y493020D01*
X521840Y493991D01*
X523009Y495160D01*
X523980Y496497D01*
X524731Y497969D01*
X525000Y498798D01*
X525500Y498719D01*
Y103500D01*
X519103D01*
X518983Y104000D01*
X520003Y104520D01*
X521340Y105491D01*
X522509Y106660D01*
X523480Y107997D01*
X524231Y109469D01*
X524742Y111041D01*
X525000Y112674D01*
Y113250D01*
X504000D01*
Y112674D01*
X504258Y111041D01*
X504769Y109469D01*
X505520Y107997D01*
X506491Y106660D01*
X507660Y105491D01*
X508997Y104520D01*
X510017Y104000D01*
X509897Y103500D01*
X117604D01*
X117483Y104000D01*
X118503Y104520D01*
X119840Y105491D01*
X121009Y106660D01*
X121980Y107997D01*
X122731Y109469D01*
X123241Y111041D01*
X123500Y112674D01*
Y113250D01*
X102500D01*
Y112674D01*
X102759Y111041D01*
X103269Y109469D01*
X104020Y107997D01*
X104991Y106660D01*
X106160Y105491D01*
X107497Y104520D01*
X108517Y104000D01*
X108396Y103500D01*
X104000D01*
X103500Y103000D01*
X101500Y105000D01*
Y119711D01*
X101962Y119902D01*
X103629Y118236D01*
X103269Y117531D01*
X102759Y115959D01*
X102500Y114326D01*
Y113750D01*
X112750D01*
Y124000D01*
X112174D01*
X110541Y123741D01*
X108969Y123231D01*
X108264Y122871D01*
X106768Y124368D01*
Y154295D01*
X123573D01*
X123997Y154351D01*
X124421Y154406D01*
X125212Y154734D01*
X125891Y155255D01*
X130723Y160087D01*
X131185Y159896D01*
Y157323D01*
X131777D01*
Y151008D01*
Y142300D01*
X131889Y141452D01*
X132216Y140661D01*
X132737Y139982D01*
X133416Y139461D01*
X134207Y139134D01*
X135055Y139022D01*
X135904Y139134D01*
X136694Y139461D01*
X137373Y139982D01*
X137894Y140661D01*
X138222Y141452D01*
X138333Y142300D01*
Y142440D01*
X138795Y142632D01*
X151172Y130255D01*
X151851Y129734D01*
X152642Y129406D01*
X153490Y129295D01*
X182500D01*
X182924Y129351D01*
X183348Y129406D01*
X184139Y129734D01*
X184818Y130255D01*
X187373Y132810D01*
X187894Y133489D01*
X188222Y134280D01*
X188277Y134704D01*
X188333Y135128D01*
Y135323D01*
X188925D01*
Y137315D01*
X189425Y137568D01*
X189575Y137458D01*
Y136823D01*
X191179D01*
X191945Y136722D01*
X192711Y136823D01*
X194315D01*
Y137734D01*
X199803Y143222D01*
X222604D01*
Y142604D01*
X226250D01*
Y146500D01*
Y150396D01*
X222604D01*
Y149778D01*
X198445D01*
X197596Y149666D01*
X196806Y149339D01*
X196127Y148818D01*
X192404Y145095D01*
X191876Y145274D01*
X191866Y145348D01*
X191539Y146139D01*
X191018Y146818D01*
X190491Y147222D01*
X190661Y147722D01*
X190700D01*
X191124Y147778D01*
X191548Y147834D01*
X192339Y148161D01*
X193018Y148682D01*
X214737Y170401D01*
X215258Y171080D01*
X215586Y171871D01*
X215697Y172719D01*
Y178795D01*
X218315D01*
X218334Y178652D01*
X218661Y177861D01*
X219182Y177182D01*
X219861Y176661D01*
X220652Y176334D01*
X221500Y176222D01*
X222348Y176334D01*
X222722Y176488D01*
X223222Y176154D01*
Y156500D01*
X223278Y156076D01*
X223334Y155652D01*
X223661Y154861D01*
X224182Y154182D01*
X227506Y150858D01*
X227315Y150396D01*
X226750D01*
Y146750D01*
X230396D01*
Y147040D01*
X230528Y147155D01*
X230896Y147276D01*
X231104Y147100D01*
Y145790D01*
X231472Y144417D01*
X232182Y143187D01*
X233187Y142182D01*
X234417Y141472D01*
X235790Y141104D01*
X237210D01*
X238583Y141472D01*
X239813Y142182D01*
X240818Y143187D01*
X241250Y143936D01*
X241750D01*
X242182Y143187D01*
X243187Y142182D01*
X244417Y141472D01*
X245790Y141104D01*
X247210D01*
X248583Y141472D01*
X249813Y142182D01*
X250818Y143187D01*
X251528Y144417D01*
X251896Y145790D01*
Y147210D01*
X251885Y147249D01*
X258818Y154182D01*
X259339Y154861D01*
X259666Y155652D01*
X259778Y156500D01*
Y180280D01*
X259965Y180467D01*
X260536Y181454D01*
X260831Y182556D01*
Y182821D01*
X261669Y183659D01*
X262169Y183452D01*
Y182556D01*
X262464Y181454D01*
X263035Y180467D01*
X263841Y179661D01*
X264828Y179090D01*
X265930Y178795D01*
X267070D01*
X268172Y179090D01*
X269159Y179661D01*
X269965Y180467D01*
X270536Y181454D01*
X270831Y182556D01*
Y183696D01*
X270536Y184798D01*
X269965Y185785D01*
X269159Y186591D01*
X268172Y187162D01*
X267070Y187457D01*
X266174D01*
X265967Y187957D01*
X306732Y228722D01*
X334181D01*
X334605Y228778D01*
X335029Y228834D01*
X335820Y229161D01*
X336499Y229682D01*
X342899Y236082D01*
X343420Y236761D01*
X343747Y237552D01*
X343859Y238400D01*
Y239898D01*
X344292Y240148D01*
X344828Y239838D01*
X345930Y239543D01*
X347070D01*
X348172Y239838D01*
X348722Y240156D01*
X349222Y239867D01*
Y239700D01*
X349278Y239276D01*
X349334Y238852D01*
X349661Y238061D01*
X350182Y237382D01*
X373222Y214342D01*
Y185972D01*
X373035Y185785D01*
X372464Y184798D01*
X372169Y183696D01*
Y182556D01*
X372464Y181454D01*
X373035Y180467D01*
X373841Y179661D01*
X374828Y179090D01*
X375930Y178795D01*
X376814D01*
Y172600D01*
X376957Y171517D01*
X377375Y170507D01*
X378040Y169640D01*
X378840Y168840D01*
X379707Y168175D01*
X380717Y167757D01*
X381800Y167614D01*
X382883Y167757D01*
X383893Y168175D01*
X384760Y168840D01*
X385425Y169707D01*
X385843Y170717D01*
X385986Y171800D01*
X385843Y172883D01*
X385425Y173893D01*
X385186Y174205D01*
Y178584D01*
X385582Y178888D01*
X385930Y178795D01*
X387070D01*
X388172Y179090D01*
X389159Y179661D01*
X389965Y180467D01*
X390536Y181454D01*
X390831Y182556D01*
Y183696D01*
X390536Y184798D01*
X389965Y185785D01*
X389159Y186591D01*
X388172Y187162D01*
X387070Y187457D01*
X385930D01*
X385582Y187364D01*
X385186Y187668D01*
Y225646D01*
X385384Y226125D01*
X385539Y227300D01*
X385384Y228475D01*
X384931Y229569D01*
X384209Y230509D01*
X375808Y238911D01*
X375836Y239471D01*
X375930Y239543D01*
X377070D01*
X378172Y239838D01*
X379159Y240409D01*
X379965Y241215D01*
X380536Y242202D01*
X380831Y243304D01*
Y244444D01*
X380536Y245546D01*
X379965Y246533D01*
X379778Y246721D01*
Y278662D01*
X379813Y278682D01*
X380818Y279687D01*
X381250Y280436D01*
X381750D01*
X382182Y279687D01*
X383187Y278682D01*
X383222Y278662D01*
Y246721D01*
X383035Y246533D01*
X382464Y245546D01*
X382169Y244444D01*
Y243304D01*
X382464Y242202D01*
X383035Y241215D01*
X383841Y240409D01*
X384828Y239838D01*
X385930Y239543D01*
X387070D01*
X388172Y239838D01*
X389159Y240409D01*
X389965Y241215D01*
X390536Y242202D01*
X390831Y243304D01*
Y244444D01*
X390536Y245546D01*
X389965Y246533D01*
X389778Y246721D01*
Y278662D01*
X389813Y278682D01*
X390818Y279687D01*
X391528Y280917D01*
X391896Y282290D01*
Y283710D01*
X391528Y285083D01*
X390818Y286313D01*
X389813Y287318D01*
X388583Y288028D01*
X387210Y288396D01*
X385790D01*
X384417Y288028D01*
X383187Y287318D01*
X382182Y286313D01*
X381750Y285564D01*
X381250D01*
X380818Y286313D01*
X379813Y287318D01*
X378583Y288028D01*
X377210Y288396D01*
X375790D01*
X374417Y288028D01*
X373187Y287318D01*
X372396Y286526D01*
X371896Y286733D01*
Y288396D01*
X363039D01*
Y328270D01*
X367069Y332299D01*
X367171D01*
X368318Y332527D01*
X369399Y332975D01*
X370371Y333625D01*
X371198Y334452D01*
X371848Y335424D01*
X372295Y336504D01*
X372524Y337651D01*
Y338821D01*
X372295Y339968D01*
X371848Y341048D01*
X371198Y342021D01*
X370371Y342848D01*
X369399Y343497D01*
X368318Y343945D01*
X367171Y344173D01*
X366002D01*
X364855Y343945D01*
X363774Y343497D01*
X362802Y342848D01*
X361975Y342021D01*
X361325Y341048D01*
X360878Y339968D01*
X360650Y338821D01*
Y338718D01*
X355291Y333359D01*
X355243Y333298D01*
X354624Y333312D01*
X291618Y396318D01*
X290939Y396839D01*
X290148Y397166D01*
X289724Y397222D01*
X289300Y397278D01*
X278315D01*
Y398677D01*
X270575D01*
Y396653D01*
X270075Y396413D01*
X269925Y396533D01*
Y397177D01*
X268321D01*
X267555Y397278D01*
X240890D01*
X240124Y397177D01*
X238808D01*
X238417Y397635D01*
X238516Y397990D01*
X243208Y402682D01*
X243729Y403361D01*
X244056Y404152D01*
X244112Y404576D01*
X244168Y405000D01*
Y407323D01*
X244760D01*
Y408722D01*
X263685D01*
Y407323D01*
X271167D01*
Y405300D01*
X271279Y404452D01*
X271606Y403661D01*
X272127Y402982D01*
X272806Y402461D01*
X273596Y402134D01*
X274445Y402022D01*
X275293Y402134D01*
X276084Y402461D01*
X276763Y402982D01*
X277284Y403661D01*
X277611Y404452D01*
X277723Y405300D01*
Y407323D01*
X278315D01*
Y416677D01*
X277566D01*
X277375Y417139D01*
X280418Y420182D01*
X280939Y420861D01*
X281266Y421652D01*
X281378Y422500D01*
Y435600D01*
X281266Y436448D01*
X280939Y437239D01*
X280418Y437918D01*
X279739Y438439D01*
X278948Y438766D01*
X278100Y438878D01*
X270833D01*
Y445323D01*
X278315D01*
Y454677D01*
X277723D01*
Y470055D01*
X277611Y470904D01*
X277284Y471694D01*
X276763Y472373D01*
X268228Y480908D01*
X267549Y481429D01*
X266759Y481756D01*
X266334Y481812D01*
X265910Y481868D01*
X249480D01*
X249055Y481812D01*
X248631Y481756D01*
X247841Y481429D01*
X247162Y480908D01*
X240890Y474636D01*
X233208Y482318D01*
X232529Y482839D01*
X231738Y483166D01*
X231314Y483222D01*
X230890Y483278D01*
X140000D01*
X139152Y483166D01*
X138361Y482839D01*
X137682Y482318D01*
X113749Y458385D01*
X113710Y458396D01*
X112290D01*
X111475Y458177D01*
X111078Y458482D01*
Y476142D01*
X115318Y480382D01*
X115839Y481061D01*
X116166Y481852D01*
X116222Y482276D01*
X116278Y482700D01*
Y492025D01*
X117031Y492269D01*
X118503Y493020D01*
X119840Y493991D01*
X121009Y495160D01*
X121980Y496497D01*
X122731Y497969D01*
X123241Y499541D01*
X123500Y501174D01*
Y501750D01*
X102500D01*
Y501174D01*
X102759Y499541D01*
X103269Y497969D01*
X104020Y496497D01*
X104991Y495160D01*
X106160Y493991D01*
X107497Y493020D01*
X108969Y492269D01*
X109722Y492025D01*
Y484058D01*
X105482Y479818D01*
X104961Y479139D01*
X104634Y478348D01*
X104578Y477924D01*
X104522Y477500D01*
Y428200D01*
X104578Y427776D01*
X104634Y427352D01*
X104961Y426561D01*
X105482Y425882D01*
X108364Y423000D01*
X105482Y420118D01*
X104961Y419439D01*
X104634Y418648D01*
X104578Y418224D01*
X104522Y417800D01*
Y374200D01*
X104578Y373776D01*
X104634Y373352D01*
X104961Y372561D01*
X105482Y371882D01*
X109187Y368177D01*
X109370Y367496D01*
X109883Y366608D01*
X110608Y365883D01*
X111496Y365370D01*
X112177Y365188D01*
X112506Y364858D01*
X112315Y364396D01*
X107604D01*
Y353604D01*
X117422D01*
Y338881D01*
X113871Y335330D01*
X113350Y334651D01*
X113023Y333861D01*
X112967Y333436D01*
X112911Y333012D01*
Y300011D01*
X112967Y299587D01*
X113023Y299163D01*
X113350Y298373D01*
X113871Y297694D01*
X117422Y294143D01*
Y275202D01*
X117046Y274872D01*
X117000Y274878D01*
X106400D01*
X105552Y274766D01*
X104761Y274439D01*
X104082Y273918D01*
X103561Y273239D01*
X103234Y272448D01*
X103122Y271600D01*
Y233210D01*
X103178Y232786D01*
X103234Y232362D01*
X103561Y231571D01*
X104082Y230892D01*
X106240Y228734D01*
Y220323D01*
X106832D01*
Y217600D01*
X106944Y216752D01*
X107271Y215961D01*
X107792Y215282D01*
X108471Y214761D01*
X109262Y214434D01*
X110110Y214322D01*
X110959Y214434D01*
X111749Y214761D01*
X112428Y215282D01*
X112949Y215961D01*
X113222Y216620D01*
X113722Y216520D01*
Y214858D01*
X107792Y208928D01*
X107271Y208249D01*
X106944Y207459D01*
X106888Y207034D01*
X106832Y206610D01*
Y202000D01*
Y182000D01*
Y177405D01*
X101962Y172535D01*
X101500Y172726D01*
Y511500D01*
X107459Y511507D01*
X107576Y511021D01*
X107497Y510980D01*
X106160Y510009D01*
X104991Y508840D01*
X104020Y507503D01*
X103269Y506031D01*
X102759Y504459D01*
X102500Y502826D01*
Y502250D01*
X123500D01*
Y502826D01*
X123241Y504459D01*
X122731Y506031D01*
X121980Y507503D01*
X121009Y508840D01*
X119840Y510009D01*
X118503Y510980D01*
X118398Y511034D01*
X118515Y511520D01*
X510368Y511986D01*
X510489Y511486D01*
D02*
G37*
G36*
X165461Y465880D02*
X158001Y458420D01*
X157539Y458611D01*
Y465120D01*
X160639Y468221D01*
X165461D01*
Y465880D01*
D02*
G37*
G36*
X154220Y474639D02*
X149791Y470209D01*
X149069Y469269D01*
X148616Y468175D01*
X148461Y467000D01*
Y445140D01*
X147961Y444918D01*
X147333Y445280D01*
X146455Y445516D01*
X146093D01*
X145713Y446016D01*
X145953Y446911D01*
Y448215D01*
X145615Y449475D01*
X144963Y450604D01*
X144041Y451526D01*
X142912Y452178D01*
X141652Y452516D01*
X140348D01*
X139088Y452178D01*
X137959Y451526D01*
X137037Y450604D01*
X136713Y450044D01*
X134052D01*
X133204Y449932D01*
X132413Y449605D01*
X131734Y449084D01*
X128882Y446232D01*
X128361Y445553D01*
X128034Y444762D01*
X127978Y444338D01*
X127922Y443914D01*
Y422896D01*
X127422Y422797D01*
X127239Y423239D01*
X126718Y423918D01*
X118385Y432251D01*
X118396Y432290D01*
Y433710D01*
X118028Y435083D01*
X117318Y436313D01*
X116313Y437318D01*
X115564Y437750D01*
Y438250D01*
X116313Y438682D01*
X117318Y439687D01*
X118028Y440917D01*
X118396Y442290D01*
Y443710D01*
X118028Y445083D01*
X117318Y446313D01*
X116313Y447318D01*
X115564Y447750D01*
Y448250D01*
X116313Y448682D01*
X117318Y449687D01*
X118028Y450917D01*
X118396Y452290D01*
Y453710D01*
X118385Y453749D01*
X141358Y476722D01*
X154220D01*
Y474639D01*
D02*
G37*
G36*
X237612Y468642D02*
Y454677D01*
X230130D01*
Y445323D01*
X230722D01*
Y443457D01*
X230274Y443236D01*
X230139Y443339D01*
X229348Y443666D01*
X228924Y443722D01*
X228500Y443778D01*
X205720D01*
X205296Y443722D01*
X204872Y443666D01*
X204081Y443339D01*
X203402Y442818D01*
X200947Y440362D01*
X200646D01*
X199537Y440065D01*
X198542Y439491D01*
X197730Y438678D01*
X197155Y437684D01*
X196858Y436574D01*
Y435426D01*
X197155Y434316D01*
X197730Y433322D01*
X198542Y432509D01*
X199537Y431935D01*
X200646Y431638D01*
X201795D01*
X202904Y431935D01*
X203899Y432509D01*
X204711Y433322D01*
X205285Y434316D01*
X205583Y435426D01*
Y435726D01*
X207078Y437222D01*
X211516D01*
X211817Y436722D01*
X211722Y436000D01*
Y400874D01*
X211778Y400450D01*
X211834Y400026D01*
X211942Y399764D01*
X211711Y399264D01*
X208736D01*
Y390736D01*
X214328D01*
X216782Y388282D01*
X217461Y387761D01*
X218252Y387434D01*
X218676Y387378D01*
X219100Y387322D01*
X230728D01*
X230834Y386520D01*
X231161Y385730D01*
X231682Y385051D01*
X234291Y382442D01*
Y376878D01*
X230720D01*
Y372878D01*
X210000D01*
X209152Y372766D01*
X208361Y372439D01*
X207682Y371918D01*
X204900Y369135D01*
X204438Y369327D01*
Y402601D01*
X204283Y403776D01*
X203830Y404871D01*
X203108Y405811D01*
X203108Y405811D01*
X202209Y406709D01*
X201269Y407431D01*
X200175Y407884D01*
X199000Y408039D01*
X198289Y407945D01*
X197789Y408384D01*
Y416250D01*
X197634Y417425D01*
X197181Y418519D01*
X196459Y419459D01*
X179073Y436846D01*
X179202Y437329D01*
X179412Y437385D01*
X180541Y438037D01*
X181463Y438959D01*
X182115Y440088D01*
X182453Y441348D01*
Y442652D01*
X182115Y443912D01*
X181463Y445041D01*
X180541Y445963D01*
X179412Y446615D01*
X178152Y446953D01*
X177453D01*
Y448152D01*
X177115Y449412D01*
X176463Y450541D01*
X175541Y451463D01*
X174412Y452115D01*
X174203Y452171D01*
X174073Y452654D01*
X183209Y461791D01*
X183931Y462731D01*
X184384Y463825D01*
X184539Y465000D01*
Y470365D01*
X184625Y470451D01*
X185386Y471769D01*
X185780Y473239D01*
Y474761D01*
X185386Y476231D01*
X185352Y476289D01*
X185602Y476722D01*
X229532D01*
X237612Y468642D01*
D02*
G37*
G36*
X146250Y438610D02*
X146455D01*
X147333Y438845D01*
X147961Y439208D01*
X148461Y438986D01*
Y416934D01*
X148028Y416684D01*
X147623Y416918D01*
X146554Y417205D01*
X145446D01*
X144778Y417026D01*
X144278Y417409D01*
Y437063D01*
X144166Y437911D01*
X143839Y438702D01*
X143778Y438782D01*
X144114Y439165D01*
X144667Y438845D01*
X145545Y438610D01*
X145750D01*
Y442063D01*
X146250D01*
Y438610D01*
D02*
G37*
G36*
X271167Y468697D02*
Y454677D01*
X263685D01*
Y445323D01*
X264277D01*
Y435177D01*
X263685D01*
Y428578D01*
X244760D01*
Y435177D01*
X244168D01*
Y441542D01*
X252318Y449692D01*
X252839Y450371D01*
X253166Y451162D01*
X253278Y452010D01*
X253166Y452859D01*
X252839Y453649D01*
X252318Y454328D01*
X251639Y454849D01*
X250848Y455177D01*
X250000Y455288D01*
X249152Y455177D01*
X248361Y454849D01*
X247682Y454328D01*
X245222Y451868D01*
X244760Y452059D01*
Y454677D01*
X244168D01*
Y468642D01*
X250837Y475312D01*
X264552D01*
X271167Y468697D01*
D02*
G37*
G36*
X238051Y423661D02*
X238572Y422982D01*
X239251Y422461D01*
X240041Y422134D01*
X240890Y422022D01*
X269784D01*
X269883Y421522D01*
X269399Y421321D01*
X268720Y420800D01*
X265237Y417318D01*
X264746Y416677D01*
X263685D01*
Y415278D01*
X244760D01*
Y416677D01*
X243892D01*
X243844Y416771D01*
X243729Y417049D01*
X243650Y417151D01*
X243592Y417266D01*
X243391Y417489D01*
X243208Y417728D01*
X243106Y417806D01*
X243020Y417902D01*
X237278Y422810D01*
Y424220D01*
X237778Y424320D01*
X238051Y423661D01*
D02*
G37*
G36*
X135348Y437110D02*
X136317D01*
X137722Y435705D01*
Y415705D01*
X136250D01*
Y413000D01*
X135750D01*
Y415705D01*
X134478D01*
Y436933D01*
X134875Y437237D01*
X135348Y437110D01*
D02*
G37*
G36*
X164459Y438037D02*
X165588Y437385D01*
X165736Y437345D01*
X188711Y414370D01*
Y409271D01*
X188314Y408967D01*
X187257Y409250D01*
X185743D01*
X184281Y408858D01*
X182969Y408101D01*
X181899Y407031D01*
X181142Y405719D01*
X180982Y405124D01*
X180465D01*
X180460Y405140D01*
X179901Y406110D01*
X179110Y406901D01*
X178140Y407460D01*
X177059Y407750D01*
X176750D01*
Y403500D01*
Y399250D01*
X177059D01*
X178140Y399540D01*
X179110Y400099D01*
X179901Y400890D01*
X180460Y401860D01*
X180465Y401876D01*
X180982D01*
X181142Y401281D01*
X181899Y399969D01*
X182969Y398899D01*
X184281Y398142D01*
X185743Y397750D01*
X187257D01*
X188314Y398033D01*
X188711Y397729D01*
Y379271D01*
X188314Y378967D01*
X187257Y379250D01*
X185743D01*
X184281Y378858D01*
X182969Y378101D01*
X181899Y377031D01*
X181750Y376773D01*
X181250D01*
X181101Y377031D01*
X180031Y378101D01*
X178719Y378858D01*
X177257Y379250D01*
X177169D01*
X163539Y392880D01*
Y438304D01*
X164001Y438495D01*
X164459Y438037D01*
D02*
G37*
G36*
X230130Y434234D02*
Y425823D01*
X230722D01*
Y421300D01*
X230739Y421173D01*
X230732Y421044D01*
X230794Y420750D01*
X230834Y420452D01*
X230883Y420333D01*
X230909Y420207D01*
X231046Y419939D01*
X231161Y419661D01*
X231239Y419559D01*
X231298Y419445D01*
X231499Y419221D01*
X231682Y418982D01*
X231784Y418904D01*
X231870Y418808D01*
X233814Y417146D01*
X233641Y416677D01*
X230130D01*
Y407323D01*
X230722D01*
Y405158D01*
X230382Y404818D01*
X229861Y404139D01*
X229534Y403348D01*
X229422Y402500D01*
X229534Y401652D01*
X229861Y400861D01*
X230382Y400182D01*
X231061Y399661D01*
X231852Y399334D01*
X231975Y399147D01*
X231795Y398677D01*
X230130D01*
Y393878D01*
X224416D01*
X224070Y394378D01*
X224152Y395000D01*
X224040Y395848D01*
X223713Y396639D01*
X223192Y397318D01*
X218278Y402232D01*
Y436000D01*
X218183Y436722D01*
X218484Y437222D01*
X227142D01*
X230130Y434234D01*
D02*
G37*
G36*
X154461Y400389D02*
Y391000D01*
X154616Y389825D01*
X155069Y388731D01*
X155791Y387791D01*
X170750Y372831D01*
Y372743D01*
X171033Y371686D01*
X170729Y371289D01*
X153575D01*
X149315Y375549D01*
Y378177D01*
X141833D01*
Y380745D01*
X141722Y381593D01*
X141394Y382384D01*
X140873Y383063D01*
X137878Y386058D01*
Y387323D01*
X149315D01*
Y389451D01*
X150430Y390567D01*
X150430Y390567D01*
X151152Y391507D01*
X151605Y392601D01*
X151760Y393776D01*
X151760Y393776D01*
Y398341D01*
X153999Y400580D01*
X154461Y400389D01*
D02*
G37*
G36*
X304733Y373931D02*
X304616Y373341D01*
X303853Y373025D01*
X302881Y372375D01*
X302054Y371548D01*
X301404Y370576D01*
X300957Y369496D01*
X300728Y368349D01*
Y367179D01*
X300957Y366032D01*
X301404Y364952D01*
X302054Y363979D01*
X302881Y363152D01*
X303853Y362503D01*
X304934Y362055D01*
X306081Y361827D01*
X307250D01*
X308397Y362055D01*
X309478Y362503D01*
X310450Y363152D01*
X311277Y363979D01*
X311927Y364952D01*
X312243Y365714D01*
X312832Y365832D01*
X349222Y329442D01*
Y281113D01*
X349084Y281012D01*
X348722Y280914D01*
X337396Y292240D01*
Y298396D01*
X326604D01*
Y296733D01*
X326104Y296526D01*
X325313Y297318D01*
X325278Y297338D01*
Y305100D01*
X325166Y305948D01*
X324839Y306739D01*
X324318Y307418D01*
X300578Y331158D01*
Y331861D01*
X300728Y332299D01*
X312602D01*
Y344173D01*
X305364D01*
X285420Y364118D01*
X284741Y364639D01*
X283950Y364966D01*
X283526Y365022D01*
X283102Y365078D01*
X276358D01*
X271425Y370011D01*
Y370847D01*
X271925Y371087D01*
X272075Y370968D01*
Y370323D01*
X273679D01*
X274445Y370222D01*
X275211Y370323D01*
X276815D01*
Y371250D01*
X277284Y371861D01*
X277611Y372652D01*
X277723Y373500D01*
Y380300D01*
X277611Y381148D01*
X277284Y381939D01*
X276763Y382618D01*
X270833Y388547D01*
Y389323D01*
X278315D01*
Y390722D01*
X287942D01*
X304733Y373931D01*
D02*
G37*
G36*
X121122Y420242D02*
Y366167D01*
X120660Y365976D01*
X116813Y369823D01*
X116630Y370504D01*
X116117Y371392D01*
X115392Y372117D01*
X114504Y372630D01*
X113823Y372813D01*
X113494Y373142D01*
X113591Y373377D01*
X113733Y373610D01*
X115083Y373972D01*
X116313Y374682D01*
X117318Y375687D01*
X118028Y376917D01*
X118396Y378290D01*
Y379710D01*
X118028Y381083D01*
X117318Y382313D01*
X116313Y383318D01*
X115564Y383750D01*
Y384250D01*
X116313Y384682D01*
X117318Y385687D01*
X118028Y386917D01*
X118396Y388290D01*
Y389710D01*
X118028Y391083D01*
X117318Y392313D01*
X116313Y393318D01*
X115083Y394028D01*
X113710Y394396D01*
X112290D01*
X111475Y394177D01*
X111078Y394482D01*
Y416442D01*
X113740Y419104D01*
X116896D01*
Y422750D01*
X113000D01*
Y423250D01*
X116896D01*
Y423815D01*
X117358Y424007D01*
X121122Y420242D01*
D02*
G37*
G36*
X234785Y365921D02*
X232458Y363594D01*
X232139Y363839D01*
X231348Y364166D01*
X230924Y364222D01*
X230500Y364278D01*
X220626D01*
X220492Y364412D01*
X219520Y364973D01*
X218435Y365264D01*
X217313D01*
X216228Y364973D01*
X215256Y364412D01*
X214462Y363618D01*
X213901Y362646D01*
X213610Y361561D01*
Y360439D01*
X213901Y359354D01*
X214462Y358382D01*
X215256Y357588D01*
X216228Y357027D01*
X217313Y356736D01*
X218435D01*
X219520Y357027D01*
X220492Y357588D01*
X220626Y357722D01*
X229142D01*
X230130Y356734D01*
Y348323D01*
X230722D01*
Y345390D01*
X230778Y344966D01*
X230834Y344541D01*
X231161Y343751D01*
X231682Y343072D01*
X237612Y337142D01*
Y335677D01*
X230130D01*
Y326323D01*
X230638D01*
X230687Y325823D01*
X227982Y323118D01*
X227461Y322439D01*
X227134Y321648D01*
X227078Y321224D01*
X227022Y320800D01*
Y302100D01*
X227078Y301676D01*
X227134Y301252D01*
X227322Y300797D01*
Y248398D01*
X227070Y248205D01*
X225930D01*
X225278Y248030D01*
X224778Y248414D01*
Y331700D01*
X224722Y332124D01*
X224666Y332548D01*
X224339Y333339D01*
X223818Y334018D01*
X209178Y348658D01*
Y358236D01*
X209750D01*
Y361000D01*
Y363764D01*
X209472D01*
X209300Y364264D01*
X211358Y366322D01*
X234000D01*
X234552Y366395D01*
X234785Y365921D01*
D02*
G37*
G36*
X128361Y381061D02*
X128882Y380382D01*
X131622Y377642D01*
Y365300D01*
X131678Y364876D01*
X131734Y364452D01*
X132061Y363661D01*
X132582Y362982D01*
X135277Y360287D01*
Y359677D01*
X134685D01*
Y358104D01*
X134223Y357912D01*
X127678Y364458D01*
Y381403D01*
X128178Y381503D01*
X128361Y381061D01*
D02*
G37*
G36*
X264277Y387190D02*
X264333Y386765D01*
X264389Y386341D01*
X264716Y385551D01*
X265237Y384872D01*
X271167Y378942D01*
Y378177D01*
X263685D01*
Y368823D01*
X264333D01*
X264389Y368396D01*
X264716Y367606D01*
X265237Y366927D01*
X270924Y361240D01*
X270733Y360778D01*
X267555D01*
X266707Y360666D01*
X265916Y360339D01*
X265237Y359818D01*
X264716Y359139D01*
X264389Y358348D01*
X264300Y357677D01*
X263685D01*
Y351704D01*
X263223Y351513D01*
X253378Y361358D01*
Y377600D01*
X253322Y378024D01*
X253266Y378448D01*
X252939Y379239D01*
X252418Y379918D01*
X247318Y385018D01*
X246639Y385539D01*
X245848Y385866D01*
X245424Y385922D01*
X245000Y385978D01*
X244168D01*
Y390722D01*
X264277D01*
Y387190D01*
D02*
G37*
G36*
X148485Y363541D02*
X148485Y363541D01*
X149425Y362819D01*
X150520Y362366D01*
X151695Y362211D01*
X176639D01*
X176830Y361749D01*
X150616Y335534D01*
X123901D01*
X123792Y335640D01*
X123601Y336034D01*
X123866Y336674D01*
X123978Y337523D01*
Y352733D01*
X124440Y352924D01*
X129182Y348182D01*
X129861Y347661D01*
X130652Y347334D01*
X131500Y347222D01*
X145445D01*
X146293Y347334D01*
X147084Y347661D01*
X147763Y348182D01*
X148284Y348861D01*
X148611Y349652D01*
X148723Y350500D01*
Y355000D01*
X148611Y355848D01*
X148284Y356639D01*
X147815Y357250D01*
Y358177D01*
X146211D01*
X145445Y358278D01*
X144679Y358177D01*
X143075D01*
Y357533D01*
X142925Y357413D01*
X142425Y357653D01*
Y359677D01*
X141833D01*
Y361645D01*
X141721Y362493D01*
X141394Y363284D01*
X140873Y363963D01*
X138178Y366658D01*
Y368823D01*
X143203D01*
X148485Y363541D01*
D02*
G37*
G36*
X187933Y356249D02*
X176120Y344437D01*
X174723D01*
X173548Y344282D01*
X172453Y343829D01*
X172131Y344212D01*
X184630Y356711D01*
X187741D01*
X187933Y356249D01*
D02*
G37*
G36*
X294022Y341242D02*
Y333512D01*
X293560Y333321D01*
X278315Y348566D01*
Y354222D01*
X281042D01*
X294022Y341242D01*
D02*
G37*
G36*
X246822Y376242D02*
Y360000D01*
X246878Y359576D01*
X246934Y359152D01*
X247261Y358361D01*
X247782Y357682D01*
X264082Y341382D01*
X264761Y340861D01*
X265552Y340534D01*
X265976Y340478D01*
X266400Y340422D01*
X270187D01*
X271167Y339442D01*
Y338677D01*
X263685D01*
Y329323D01*
X264300D01*
X264389Y328652D01*
X264716Y327861D01*
X265237Y327182D01*
X265916Y326661D01*
X266707Y326334D01*
X267555Y326222D01*
X270477D01*
X270665Y325978D01*
X270426Y325478D01*
X265248D01*
X244168Y346558D01*
Y353000D01*
Y360942D01*
X245018Y361792D01*
X245539Y362471D01*
X245866Y363262D01*
X245922Y363686D01*
X245978Y364110D01*
Y376433D01*
X246440Y376624D01*
X246822Y376242D01*
D02*
G37*
G36*
X170222Y328150D02*
Y308126D01*
X170268Y307778D01*
X170169Y307523D01*
X169954Y307278D01*
X169055D01*
X168631Y307222D01*
X168207Y307166D01*
X167416Y306839D01*
X166737Y306318D01*
X132737Y272318D01*
X132216Y271639D01*
X131889Y270848D01*
X131833Y270424D01*
X131777Y270000D01*
Y265733D01*
X123978D01*
Y295501D01*
X123866Y296349D01*
X123539Y297140D01*
X123018Y297819D01*
X119467Y301369D01*
Y304895D01*
X119929Y305087D01*
X125872Y299144D01*
X125776Y298662D01*
Y297338D01*
X126034Y296039D01*
X126541Y294815D01*
X127277Y293713D01*
X128213Y292777D01*
X129315Y292041D01*
X130539Y291534D01*
X131838Y291276D01*
X133162D01*
X134461Y291534D01*
X135685Y292041D01*
X136787Y292777D01*
X137723Y293713D01*
X138459Y294815D01*
X138966Y296039D01*
X139224Y297338D01*
Y298662D01*
X138966Y299961D01*
X138459Y301185D01*
X137723Y302287D01*
X136787Y303223D01*
X135685Y303959D01*
X134461Y304466D01*
X133162Y304724D01*
X133129D01*
X124978Y312876D01*
Y326187D01*
X125248Y326457D01*
X152496D01*
X153670Y326611D01*
X154765Y327065D01*
X155512Y327638D01*
X155843Y327261D01*
X151120Y322539D01*
X137471D01*
X136787Y323223D01*
X135685Y323959D01*
X134461Y324466D01*
X133162Y324724D01*
X131838D01*
X130539Y324466D01*
X129315Y323959D01*
X128213Y323223D01*
X127277Y322287D01*
X126541Y321185D01*
X126034Y319961D01*
X125776Y318662D01*
Y317338D01*
X126034Y316039D01*
X126541Y314815D01*
X127277Y313713D01*
X128213Y312777D01*
X129315Y312041D01*
X130539Y311534D01*
X131838Y311276D01*
X133162D01*
X134461Y311534D01*
X135685Y312041D01*
X136787Y312777D01*
X137471Y313461D01*
X153000D01*
X154175Y313616D01*
X155269Y314069D01*
X156209Y314791D01*
X169760Y328341D01*
X170222Y328150D01*
D02*
G37*
G36*
X237612Y323420D02*
Y315177D01*
X233578D01*
Y319442D01*
X236318Y322182D01*
X236839Y322861D01*
X237112Y323520D01*
X237612Y323420D01*
D02*
G37*
G36*
X261572Y319882D02*
X262251Y319361D01*
X263041Y319034D01*
X263466Y318978D01*
X263890Y318922D01*
X269542D01*
X272825Y315639D01*
X272634Y315177D01*
X263685D01*
Y311182D01*
X244760D01*
Y315177D01*
X244168D01*
Y326323D01*
X244760D01*
Y335677D01*
X244168D01*
Y336633D01*
X244630Y336824D01*
X261572Y319882D01*
D02*
G37*
G36*
X295422Y322187D02*
Y310259D01*
X294922Y310226D01*
X294866Y310648D01*
X294539Y311439D01*
X294018Y312118D01*
X277275Y328861D01*
X277466Y329323D01*
X278315D01*
Y338587D01*
X278732Y338877D01*
X295422Y322187D01*
D02*
G37*
G36*
X189222Y300142D02*
Y297693D01*
X188760Y297502D01*
X179944Y306318D01*
X179944Y306318D01*
X177026Y309236D01*
X177249Y309720D01*
X178189D01*
X179278Y310012D01*
X179325Y310039D01*
X189222Y300142D01*
D02*
G37*
G36*
X318722Y303742D02*
Y297338D01*
X318687Y297318D01*
X317682Y296313D01*
X317250Y295564D01*
X316750D01*
X316318Y296313D01*
X315313Y297318D01*
X314083Y298028D01*
X312710Y298396D01*
X311290D01*
X309917Y298028D01*
X308687Y297318D01*
X307682Y296313D01*
X306972Y295083D01*
X306604Y293710D01*
Y292290D01*
X306615Y292251D01*
X304182Y289818D01*
X303661Y289139D01*
X303334Y288348D01*
X303278Y287924D01*
X303222Y287500D01*
Y268400D01*
X303278Y267976D01*
X303334Y267552D01*
X303661Y266761D01*
X304182Y266082D01*
X313222Y257042D01*
Y253321D01*
X312722Y253114D01*
X301978Y263858D01*
Y319833D01*
X302440Y320024D01*
X318722Y303742D01*
D02*
G37*
G36*
X317682Y289687D02*
X318687Y288682D01*
X319436Y288250D01*
Y287750D01*
X318687Y287318D01*
X317682Y286313D01*
X316972Y285083D01*
X316604Y283710D01*
Y282290D01*
X316972Y280917D01*
X317682Y279687D01*
X318687Y278682D01*
X318722Y278662D01*
Y261467D01*
X318260Y261276D01*
X309778Y269758D01*
Y279285D01*
X310211Y279535D01*
X310496Y279370D01*
X311487Y279104D01*
X311750D01*
Y283000D01*
X312000D01*
D01*
X311750D01*
Y286896D01*
X311487D01*
X311148Y286805D01*
X310889Y287253D01*
X311251Y287615D01*
X311290Y287604D01*
X312710D01*
X314083Y287972D01*
X315313Y288682D01*
X316318Y289687D01*
X316750Y290436D01*
X317250D01*
X317682Y289687D01*
D02*
G37*
G36*
X274822Y302088D02*
Y295958D01*
X265677Y286812D01*
X265078Y286652D01*
X264578Y286892D01*
Y292497D01*
X274360Y302279D01*
X274822Y302088D01*
D02*
G37*
G36*
X288422Y308442D02*
Y288396D01*
X281104D01*
Y286733D01*
X280604Y286526D01*
X279813Y287318D01*
X278583Y288028D01*
X277233Y288390D01*
X277091Y288623D01*
X276993Y288858D01*
X280418Y292282D01*
X280939Y292961D01*
X281266Y293752D01*
X281378Y294600D01*
Y314779D01*
X281878Y314986D01*
X288422Y308442D01*
D02*
G37*
G36*
X266750Y279104D02*
X267013D01*
X268004Y279370D01*
X268892Y279883D01*
X269617Y280608D01*
X270130Y281496D01*
X270312Y282177D01*
X270642Y282506D01*
X270877Y282410D01*
X271110Y282267D01*
X271472Y280917D01*
X272182Y279687D01*
X273187Y278682D01*
X273222Y278662D01*
Y246721D01*
X273035Y246533D01*
X272464Y245546D01*
X272169Y244444D01*
Y243304D01*
X272464Y242202D01*
X273035Y241215D01*
X273841Y240409D01*
X274828Y239838D01*
X275930Y239543D01*
X277070D01*
X278172Y239838D01*
X279159Y240409D01*
X279965Y241215D01*
X280536Y242202D01*
X280831Y243304D01*
Y244444D01*
X280536Y245546D01*
X279965Y246533D01*
X279778Y246721D01*
Y278662D01*
X279813Y278682D01*
X280604Y279474D01*
X281104Y279267D01*
Y277604D01*
X283222D01*
Y246721D01*
X283035Y246533D01*
X282464Y245546D01*
X282169Y244444D01*
Y243304D01*
X282464Y242202D01*
X283035Y241215D01*
X283841Y240409D01*
X284828Y239838D01*
X285930Y239543D01*
X287070D01*
X287922Y239772D01*
X288422Y239448D01*
Y227858D01*
X250082Y189518D01*
X249561Y188839D01*
X249234Y188048D01*
X249178Y187624D01*
X249122Y187200D01*
Y187113D01*
X248689Y186863D01*
X248172Y187162D01*
X247070Y187457D01*
X245930D01*
X244828Y187162D01*
X243841Y186591D01*
X243035Y185785D01*
X242464Y184798D01*
X242169Y183696D01*
Y182556D01*
X242464Y181454D01*
X243035Y180467D01*
X243841Y179661D01*
X244828Y179090D01*
X245930Y178795D01*
X247070D01*
X248172Y179090D01*
X248689Y179389D01*
X249122Y179139D01*
Y171800D01*
X249234Y170952D01*
X249561Y170161D01*
X250082Y169482D01*
X250761Y168961D01*
X251552Y168634D01*
X252400Y168522D01*
X252846Y168581D01*
X253222Y168251D01*
Y157858D01*
X247249Y151885D01*
X247210Y151896D01*
X245790D01*
X244417Y151528D01*
X243187Y150818D01*
X242182Y149813D01*
X241750Y149064D01*
X241250D01*
X240818Y149813D01*
X239813Y150818D01*
X238583Y151528D01*
X237210Y151896D01*
X235790D01*
X235751Y151885D01*
X229778Y157858D01*
Y180280D01*
X229965Y180467D01*
X230536Y181454D01*
X230831Y182556D01*
Y182821D01*
X231669Y183659D01*
X232169Y183452D01*
Y182556D01*
X232464Y181454D01*
X233035Y180467D01*
X233841Y179661D01*
X234828Y179090D01*
X235930Y178795D01*
X237070D01*
X238172Y179090D01*
X239159Y179661D01*
X239965Y180467D01*
X240536Y181454D01*
X240831Y182556D01*
Y183696D01*
X240536Y184798D01*
X239965Y185785D01*
X239159Y186591D01*
X238172Y187162D01*
X237070Y187457D01*
X235930D01*
X234828Y187162D01*
X234336Y186878D01*
X233873Y187187D01*
X233878Y187226D01*
Y239887D01*
X234311Y240137D01*
X234828Y239838D01*
X235930Y239543D01*
X237070D01*
X238172Y239838D01*
X239159Y240409D01*
X239965Y241215D01*
X240536Y242202D01*
X240831Y243304D01*
Y244444D01*
X240536Y245546D01*
X239965Y246533D01*
X239159Y247339D01*
X238172Y247910D01*
X237070Y248205D01*
X235930D01*
X234828Y247910D01*
X234311Y247611D01*
X233878Y247861D01*
Y261207D01*
X234340Y261398D01*
X247033Y248705D01*
X246826Y248205D01*
X245930D01*
X244828Y247910D01*
X243841Y247339D01*
X243035Y246533D01*
X242464Y245546D01*
X242169Y244444D01*
Y243304D01*
X242464Y242202D01*
X243035Y241215D01*
X243841Y240409D01*
X244828Y239838D01*
X245930Y239543D01*
X247070D01*
X248172Y239838D01*
X249159Y240409D01*
X249965Y241215D01*
X250536Y242202D01*
X250831Y243304D01*
Y244200D01*
X251331Y244407D01*
X252169Y243569D01*
Y243304D01*
X252464Y242202D01*
X253035Y241215D01*
X253841Y240409D01*
X254828Y239838D01*
X255930Y239543D01*
X257070D01*
X258172Y239838D01*
X259159Y240409D01*
X259965Y241215D01*
X260536Y242202D01*
X260831Y243304D01*
Y244200D01*
X261331Y244408D01*
X262169Y243569D01*
Y243304D01*
X262464Y242202D01*
X263035Y241215D01*
X263841Y240409D01*
X264828Y239838D01*
X265930Y239543D01*
X267070D01*
X268172Y239838D01*
X269159Y240409D01*
X269965Y241215D01*
X270536Y242202D01*
X270831Y243304D01*
Y244444D01*
X270536Y245546D01*
X269965Y246533D01*
X269159Y247339D01*
X268172Y247910D01*
X267070Y248205D01*
X266805D01*
X264578Y250432D01*
Y279109D01*
X265078Y279348D01*
X265987Y279104D01*
X266250D01*
Y283000D01*
X266750D01*
Y279104D01*
D02*
G37*
G36*
X186222Y290768D02*
Y277003D01*
X185722Y276625D01*
X184710Y276896D01*
X183290D01*
X181917Y276528D01*
X180687Y275818D01*
X179682Y274813D01*
X178972Y273583D01*
X178604Y272210D01*
Y270790D01*
X178972Y269417D01*
X179682Y268187D01*
X180687Y267182D01*
X181917Y266472D01*
X183085Y266159D01*
X183295Y265648D01*
X183100Y265396D01*
X180104D01*
Y261750D01*
X184000D01*
Y261500D01*
X184250D01*
Y257604D01*
X187015D01*
X187206Y257142D01*
X158342Y228278D01*
X145815D01*
Y229677D01*
X145223D01*
Y240823D01*
X145815D01*
Y250177D01*
X145223D01*
Y262323D01*
X145815D01*
Y271677D01*
X142022D01*
X141830Y272139D01*
X170413Y300722D01*
X176268D01*
X186222Y290768D01*
D02*
G37*
G36*
X373187Y278682D02*
X373222Y278662D01*
Y270050D01*
X372760Y269859D01*
X365476Y277142D01*
X365668Y277604D01*
X371896D01*
Y279267D01*
X372396Y279474D01*
X373187Y278682D01*
D02*
G37*
G36*
X202622Y357448D02*
Y347300D01*
X202678Y346876D01*
X202734Y346452D01*
X203061Y345661D01*
X203582Y344982D01*
X206154Y342410D01*
X206056Y341920D01*
X205861Y341839D01*
X205182Y341318D01*
X201982Y338118D01*
X201461Y337439D01*
X201134Y336648D01*
X201078Y336224D01*
X201022Y335800D01*
Y308074D01*
X201078Y307650D01*
X201134Y307226D01*
X201461Y306435D01*
X201982Y305756D01*
X204095Y303644D01*
Y303437D01*
X204386Y302348D01*
X204949Y301372D01*
X205746Y300575D01*
X206707Y300021D01*
X206723Y300010D01*
X206898Y299447D01*
X206661Y299139D01*
X206334Y298348D01*
X206278Y297924D01*
X206222Y297500D01*
Y266758D01*
X199240Y259776D01*
X198778Y259967D01*
Y311126D01*
X198666Y311974D01*
X198339Y312765D01*
X197818Y313444D01*
X197139Y313965D01*
X196348Y314292D01*
X195500Y314404D01*
X194652Y314292D01*
X193861Y313965D01*
X193182Y313444D01*
X192661Y312765D01*
X192334Y311974D01*
X192222Y311126D01*
Y307067D01*
X191760Y306876D01*
X182318Y316318D01*
X181639Y316839D01*
X180904Y317143D01*
Y321226D01*
X181051Y321372D01*
X181614Y322348D01*
X181905Y323437D01*
Y324563D01*
X181614Y325652D01*
X181051Y326628D01*
X180254Y327425D01*
X179278Y327988D01*
X178189Y328279D01*
X177249D01*
X177026Y328765D01*
X179482Y331221D01*
X180405D01*
Y332284D01*
X180465Y332361D01*
X180792Y333152D01*
X180904Y334000D01*
X180792Y334848D01*
X180465Y335639D01*
X180405Y335716D01*
Y336071D01*
X181210Y336689D01*
X202160Y357639D01*
X202622Y357448D01*
D02*
G37*
G36*
X327682Y279687D02*
X328687Y278682D01*
X329917Y277972D01*
X331290Y277604D01*
X332710D01*
X332749Y277615D01*
X337303Y273061D01*
Y248383D01*
X337076Y248209D01*
X336803Y248207D01*
X325278Y259732D01*
Y278662D01*
X325313Y278682D01*
X326318Y279687D01*
X326750Y280436D01*
X327250D01*
X327682Y279687D01*
D02*
G37*
G36*
X238572Y305586D02*
X239251Y305065D01*
X240041Y304737D01*
X240890Y304626D01*
X266781D01*
X266973Y304164D01*
X258982Y296173D01*
X258461Y295494D01*
X258134Y294704D01*
X258078Y294279D01*
X258022Y293855D01*
Y249074D01*
X258105Y248445D01*
X257752Y248075D01*
X257672Y248043D01*
X257070Y248205D01*
X256805D01*
X237278Y267732D01*
Y305823D01*
X238390D01*
X238572Y305586D01*
D02*
G37*
G36*
X327033Y248705D02*
X326826Y248205D01*
X325930D01*
X324828Y247910D01*
X323841Y247339D01*
X323035Y246533D01*
X322464Y245546D01*
X322169Y244444D01*
Y244179D01*
X321331Y243340D01*
X320831Y243548D01*
Y244444D01*
X320536Y245546D01*
X319965Y246533D01*
X319778Y246721D01*
Y255307D01*
X320240Y255498D01*
X327033Y248705D01*
D02*
G37*
G36*
X295534Y261652D02*
X295861Y260861D01*
X296382Y260182D01*
X307322Y249242D01*
Y248398D01*
X307070Y248205D01*
X305930D01*
X304828Y247910D01*
X303841Y247339D01*
X303035Y246533D01*
X302464Y245546D01*
X302169Y244444D01*
Y243304D01*
X302464Y242202D01*
X303035Y241215D01*
X303222Y241027D01*
Y234484D01*
X303056Y234318D01*
X303056Y234318D01*
X295478Y226740D01*
X294978Y226947D01*
Y239388D01*
X295375Y239692D01*
X295930Y239543D01*
X297070D01*
X298172Y239838D01*
X299159Y240409D01*
X299965Y241215D01*
X300536Y242202D01*
X300831Y243304D01*
Y244444D01*
X300536Y245546D01*
X299965Y246533D01*
X299159Y247339D01*
X298172Y247910D01*
X297070Y248205D01*
X295930D01*
X295375Y248056D01*
X294978Y248360D01*
Y262041D01*
X295478Y262076D01*
X295534Y261652D01*
D02*
G37*
G36*
X332169Y243569D02*
Y243304D01*
X332464Y242202D01*
X333035Y241215D01*
X333841Y240409D01*
X334828Y239838D01*
X335930Y239543D01*
X336381D01*
X336588Y239043D01*
X332823Y235278D01*
X323193D01*
X323002Y235740D01*
X326805Y239543D01*
X327070D01*
X328172Y239838D01*
X329159Y240409D01*
X329965Y241215D01*
X330536Y242202D01*
X330831Y243304D01*
Y244200D01*
X331331Y244407D01*
X332169Y243569D01*
D02*
G37*
G36*
X131777Y245500D02*
X131889Y244652D01*
X132216Y243861D01*
X132685Y243250D01*
Y242323D01*
X134289D01*
X135055Y242222D01*
X135821Y242323D01*
X137425D01*
Y242968D01*
X137575Y243087D01*
X138075Y242847D01*
Y240823D01*
X138667D01*
Y232125D01*
X138167Y232026D01*
X137894Y232684D01*
X137373Y233363D01*
X132318Y238418D01*
X131639Y238939D01*
X130848Y239266D01*
X130424Y239322D01*
X130000Y239378D01*
X121358D01*
X120413Y240323D01*
X120604Y240823D01*
X120870D01*
Y250177D01*
X113388D01*
Y259177D01*
X131777D01*
Y245500D01*
D02*
G37*
G36*
X184222Y239990D02*
Y231992D01*
X183722Y231703D01*
X183146Y232036D01*
X182061Y232327D01*
X180939D01*
X179854Y232036D01*
X178882Y231475D01*
X178088Y230681D01*
X177527Y229709D01*
X177236Y228624D01*
Y227502D01*
X177527Y226417D01*
X178088Y225445D01*
X178882Y224651D01*
X179854Y224090D01*
X180939Y223799D01*
X182061D01*
X183146Y224090D01*
X183722Y224423D01*
X184222Y224134D01*
Y207558D01*
X175840Y199176D01*
X175378Y199367D01*
Y231799D01*
X183760Y240181D01*
X184222Y239990D01*
D02*
G37*
G36*
X367314Y262467D02*
Y248392D01*
X367070Y248205D01*
X365930D01*
X364828Y247910D01*
X363841Y247339D01*
X363035Y246533D01*
X362464Y245546D01*
X362169Y244444D01*
Y243304D01*
X362464Y242202D01*
X363035Y241215D01*
X363841Y240409D01*
X364828Y239838D01*
X365930Y239543D01*
X367070D01*
X367314Y239356D01*
Y238454D01*
X367116Y237975D01*
X366961Y236800D01*
X367116Y235625D01*
X367569Y234531D01*
X368291Y233591D01*
X376814Y225067D01*
Y220675D01*
X376352Y220484D01*
X357599Y239237D01*
X357729Y239720D01*
X358172Y239838D01*
X359159Y240409D01*
X359965Y241215D01*
X360536Y242202D01*
X360831Y243304D01*
Y244444D01*
X360536Y245546D01*
X359965Y246533D01*
X359159Y247339D01*
X358172Y247910D01*
X357070Y248205D01*
X355930D01*
X355778Y248321D01*
Y273350D01*
X356240Y273541D01*
X367314Y262467D01*
D02*
G37*
G36*
X131287Y230177D02*
X131185Y229677D01*
X131185D01*
Y220323D01*
X138667D01*
Y214780D01*
X138167Y214681D01*
X137894Y215339D01*
X137373Y216018D01*
X136694Y216539D01*
X135904Y216866D01*
X135055Y216978D01*
X134207Y216866D01*
X133416Y216539D01*
X132737Y216018D01*
X132216Y215339D01*
X131889Y214548D01*
X131777Y213700D01*
Y206677D01*
X131185D01*
Y205278D01*
X120870D01*
Y206677D01*
X115466D01*
X115275Y207139D01*
X119318Y211182D01*
X119839Y211861D01*
X120166Y212652D01*
X120222Y213076D01*
X120278Y213500D01*
Y225000D01*
Y232822D01*
X128642D01*
X131287Y230177D01*
D02*
G37*
G36*
X218222Y239334D02*
Y187457D01*
X215697D01*
Y239365D01*
X215930Y239543D01*
X217070D01*
X217722Y239718D01*
X218222Y239334D01*
D02*
G37*
G36*
X225930Y239543D02*
X227070D01*
X227322Y239350D01*
Y188584D01*
X226195Y187457D01*
X225930D01*
X225278Y187282D01*
X224778Y187666D01*
Y239334D01*
X225278Y239718D01*
X225930Y239543D01*
D02*
G37*
G36*
X206138Y256702D02*
X206141Y256698D01*
Y211277D01*
X181128Y186264D01*
X177236D01*
Y185278D01*
X145815D01*
Y186677D01*
X138333D01*
Y197323D01*
X145815D01*
Y206677D01*
X145223D01*
Y220323D01*
X145815D01*
Y221722D01*
X159700D01*
X160124Y221778D01*
X160548Y221834D01*
X161339Y222161D01*
X162018Y222682D01*
X168360Y229024D01*
X168822Y228833D01*
Y196400D01*
X168934Y195552D01*
X169261Y194761D01*
X169782Y194082D01*
X170027Y193894D01*
X170060Y193395D01*
X168982Y192318D01*
X168461Y191639D01*
X168134Y190848D01*
X168022Y190000D01*
X168134Y189152D01*
X168461Y188361D01*
X168982Y187682D01*
X169661Y187161D01*
X170452Y186834D01*
X171300Y186722D01*
X172148Y186834D01*
X172939Y187161D01*
X173618Y187682D01*
X189818Y203882D01*
X190339Y204561D01*
X190666Y205352D01*
X190722Y205776D01*
X190778Y206200D01*
Y242042D01*
X205667Y256931D01*
X206138Y256702D01*
D02*
G37*
G36*
X209141Y204352D02*
Y174077D01*
X195685Y160621D01*
X195223Y160812D01*
Y162000D01*
X195111Y162848D01*
X194784Y163639D01*
X194315Y164250D01*
Y165177D01*
X192711D01*
X191945Y165278D01*
X191179Y165177D01*
X189575D01*
Y164532D01*
X189425Y164413D01*
X188925Y164653D01*
Y166677D01*
X188333D01*
Y170245D01*
X188222Y171093D01*
X187894Y171884D01*
X187373Y172563D01*
X186694Y173084D01*
X185904Y173411D01*
X185055Y173523D01*
X184207Y173411D01*
X183416Y173084D01*
X182737Y172563D01*
X182216Y171884D01*
X181889Y171093D01*
X181777Y170245D01*
Y166677D01*
X181185D01*
Y165278D01*
X170870D01*
Y166677D01*
X156240D01*
Y165278D01*
X145815D01*
Y166677D01*
X145166D01*
X145111Y167093D01*
X144784Y167884D01*
X144263Y168563D01*
X143584Y169084D01*
X142793Y169411D01*
X141945Y169523D01*
X141096Y169411D01*
X140512Y169169D01*
X140229Y169593D01*
X144263Y173627D01*
X144784Y174306D01*
X145111Y175096D01*
X145167Y175521D01*
X145223Y175945D01*
Y177323D01*
X145815D01*
Y178722D01*
X177236D01*
Y177736D01*
X185764D01*
Y181628D01*
X208679Y204543D01*
X209141Y204352D01*
D02*
G37*
G36*
X131185Y197323D02*
X131777D01*
Y186677D01*
X131185D01*
Y177821D01*
X128642Y175278D01*
X124000D01*
X123152Y175166D01*
X122361Y174839D01*
X121682Y174318D01*
X114999Y167635D01*
X114409Y167752D01*
X114249Y168139D01*
X113728Y168818D01*
X113715Y169017D01*
X119318Y174619D01*
X119839Y175298D01*
X120166Y176089D01*
X120278Y176937D01*
Y177323D01*
X120870D01*
Y186677D01*
X113388D01*
Y197323D01*
X120870D01*
Y198722D01*
X131185D01*
Y197323D01*
D02*
G37*
G36*
X129586Y168222D02*
X122215Y160851D01*
X120870D01*
Y164234D01*
X125358Y168722D01*
X129379D01*
X129586Y168222D01*
D02*
G37*
G36*
X156240Y157323D02*
X158524D01*
X158715Y156861D01*
X154172Y152318D01*
X153651Y151639D01*
X153324Y150848D01*
X153268Y150424D01*
X153212Y150000D01*
Y138140D01*
X152750Y137949D01*
X138333Y152365D01*
Y157323D01*
X145815D01*
Y158722D01*
X156240D01*
Y157323D01*
D02*
G37*
G36*
X181185Y135894D02*
X181142Y135851D01*
X168940D01*
X168749Y136313D01*
X169259Y136823D01*
X169370D01*
Y136950D01*
X169839Y137561D01*
X170166Y138352D01*
X170194Y138558D01*
X172858Y141222D01*
X181185D01*
Y135894D01*
D02*
G37*
%LPC*%
G36*
X514750Y501750D02*
X504500D01*
Y501174D01*
X504759Y499541D01*
X505269Y497969D01*
X506020Y496497D01*
X506991Y495160D01*
X508160Y493991D01*
X509497Y493020D01*
X510969Y492269D01*
X512541Y491758D01*
X514174Y491500D01*
X514750D01*
Y501750D01*
D02*
G37*
G36*
X360620Y440953D02*
X360415D01*
X359537Y440718D01*
X358750Y440263D01*
X358107Y439620D01*
X357653Y438833D01*
X357417Y437955D01*
Y437750D01*
X360620D01*
Y440953D01*
D02*
G37*
G36*
X369752Y489539D02*
X368577Y489384D01*
X367482Y488931D01*
X366542Y488209D01*
X363613Y485281D01*
X362892Y484340D01*
X362439Y483246D01*
X362284Y482071D01*
Y441213D01*
X361784Y440830D01*
X361325Y440953D01*
X361120D01*
Y437500D01*
Y434047D01*
X361325D01*
X361651Y434135D01*
X362048Y433830D01*
Y404587D01*
Y371621D01*
X361975Y371548D01*
X361325Y370576D01*
X360878Y369496D01*
X360650Y368349D01*
Y367179D01*
X360878Y366032D01*
X361325Y364952D01*
X361975Y363979D01*
X362802Y363152D01*
X363774Y362503D01*
X364855Y362055D01*
X366002Y361827D01*
X367171D01*
X368318Y362055D01*
X369399Y362503D01*
X370371Y363152D01*
X371198Y363979D01*
X371848Y364952D01*
X372295Y366032D01*
X372524Y367179D01*
Y368349D01*
X372295Y369496D01*
X371848Y370576D01*
X371198Y371548D01*
X371125Y371621D01*
Y402707D01*
X411019Y442600D01*
X411630D01*
X412867Y442846D01*
X414031Y443329D01*
X414520Y443655D01*
X414961Y443420D01*
Y434580D01*
X414520Y434345D01*
X414031Y434671D01*
X412867Y435154D01*
X411630Y435400D01*
X410370D01*
X409133Y435154D01*
X407969Y434671D01*
X406920Y433971D01*
X406029Y433079D01*
X405329Y432031D01*
X404846Y430867D01*
X404600Y429630D01*
Y428370D01*
X404846Y427133D01*
X405329Y425969D01*
X406029Y424921D01*
X406920Y424029D01*
X407969Y423329D01*
X409133Y422846D01*
X410370Y422600D01*
X411630D01*
X412867Y422846D01*
X414031Y423329D01*
X414520Y423655D01*
X414961Y423420D01*
Y412675D01*
X414461Y412468D01*
X414008Y412921D01*
X412891Y413566D01*
X411645Y413900D01*
X411250D01*
Y409000D01*
Y404100D01*
X411645D01*
X412891Y404434D01*
X414008Y405079D01*
X414461Y405532D01*
X414961Y405325D01*
Y269801D01*
X414461Y269631D01*
X414318Y269818D01*
X400313Y283823D01*
X400130Y284504D01*
X399617Y285392D01*
X398892Y286117D01*
X398004Y286630D01*
X397013Y286896D01*
X396750D01*
Y283000D01*
X396500D01*
Y282750D01*
X392604D01*
Y282487D01*
X392870Y281496D01*
X393383Y280608D01*
X394108Y279883D01*
X394996Y279370D01*
X395677Y279187D01*
X408722Y266142D01*
Y248092D01*
X408289Y247842D01*
X408172Y247910D01*
X407070Y248205D01*
X405930D01*
X404828Y247910D01*
X403841Y247339D01*
X403035Y246533D01*
X402464Y245546D01*
X402169Y244444D01*
Y243304D01*
X402464Y242202D01*
X403035Y241215D01*
X403841Y240409D01*
X404828Y239838D01*
X405930Y239543D01*
X407070D01*
X408172Y239838D01*
X408234Y239875D01*
X408774Y239609D01*
X408834Y239152D01*
X409161Y238361D01*
X409682Y237682D01*
X420182Y227182D01*
X420861Y226661D01*
X421652Y226334D01*
X422500Y226222D01*
X427542D01*
X430667Y223097D01*
Y220177D01*
X423185D01*
Y217950D01*
X422552Y217866D01*
X421761Y217539D01*
X421082Y217018D01*
X420561Y216339D01*
X420234Y215548D01*
X420122Y214700D01*
Y165600D01*
X420234Y164752D01*
X420561Y163961D01*
X421082Y163282D01*
X421761Y162761D01*
X422552Y162434D01*
X423400Y162322D01*
X479740D01*
X480500Y162222D01*
X491700D01*
X492124Y162278D01*
X492548Y162334D01*
X493339Y162661D01*
X494018Y163182D01*
X495818Y164982D01*
X496339Y165661D01*
X496666Y166452D01*
X496778Y167300D01*
Y209300D01*
X496666Y210148D01*
X496339Y210939D01*
X495818Y211618D01*
X482168Y225268D01*
Y226115D01*
X482668Y226322D01*
X483213Y225777D01*
X484315Y225041D01*
X485539Y224534D01*
X486838Y224276D01*
X488162D01*
X489461Y224534D01*
X490685Y225041D01*
X491787Y225777D01*
X492723Y226713D01*
X493459Y227815D01*
X493966Y229039D01*
X494224Y230338D01*
Y231662D01*
X493966Y232961D01*
X493459Y234185D01*
X492723Y235287D01*
X491787Y236223D01*
X490685Y236959D01*
X489461Y237466D01*
X488162Y237724D01*
X486838D01*
X485539Y237466D01*
X484315Y236959D01*
X483213Y236223D01*
X482668Y235678D01*
X482168Y235885D01*
Y246115D01*
X482668Y246322D01*
X483213Y245777D01*
X484315Y245041D01*
X485539Y244534D01*
X486838Y244276D01*
X488162D01*
X489461Y244534D01*
X490685Y245041D01*
X491787Y245777D01*
X492723Y246713D01*
X493459Y247815D01*
X493966Y249039D01*
X494224Y250338D01*
Y251306D01*
X519009Y276091D01*
X519009Y276091D01*
X519731Y277031D01*
X520184Y278125D01*
X520339Y279300D01*
Y423700D01*
X520184Y424875D01*
X519731Y425969D01*
X519009Y426909D01*
X502633Y443286D01*
X502824Y443748D01*
X515063D01*
Y481606D01*
X468937D01*
Y469135D01*
X468475Y468944D01*
X457810Y479609D01*
X456870Y480330D01*
X455775Y480784D01*
X454600Y480938D01*
X444935D01*
X443760Y480784D01*
X442666Y480330D01*
X441726Y479609D01*
X441725Y479609D01*
X436791Y474674D01*
X436069Y473734D01*
X435616Y472639D01*
X435461Y471465D01*
Y457000D01*
X435616Y455825D01*
X436069Y454731D01*
X436791Y453791D01*
X441600Y448981D01*
Y448370D01*
X441846Y447133D01*
X442329Y445969D01*
X443029Y444920D01*
X443921Y444029D01*
X444969Y443329D01*
X446133Y442846D01*
X447370Y442600D01*
X448630D01*
X449867Y442846D01*
X451031Y443329D01*
X451850Y443876D01*
X452350Y443608D01*
Y436576D01*
X452504Y435401D01*
X452958Y434306D01*
X453679Y433366D01*
X455143Y431902D01*
X456084Y431181D01*
X457178Y430727D01*
X458353Y430573D01*
X481608D01*
X482082Y430100D01*
X481890Y429638D01*
X478031D01*
Y423123D01*
X477616Y422120D01*
X477461Y420945D01*
Y414380D01*
X476620Y413539D01*
X454400D01*
Y415400D01*
X441600D01*
Y402600D01*
X443461D01*
Y378880D01*
X431943Y367362D01*
X431039D01*
Y472100D01*
X430884Y473275D01*
X430431Y474369D01*
X429709Y475309D01*
X429709Y475310D01*
X416809Y488209D01*
X415869Y488931D01*
X414775Y489384D01*
X413600Y489539D01*
X369752D01*
X369752Y489539D01*
D02*
G37*
G36*
X360620Y437250D02*
X357417D01*
Y437045D01*
X357653Y436167D01*
X358107Y435380D01*
X358750Y434737D01*
X359537Y434282D01*
X360415Y434047D01*
X360620D01*
Y437250D01*
D02*
G37*
G36*
X326453Y442453D02*
X316547D01*
Y432547D01*
X326453D01*
Y442453D01*
D02*
G37*
G36*
X448630Y435400D02*
X447370D01*
X446133Y435154D01*
X444969Y434671D01*
X443921Y433971D01*
X443029Y433079D01*
X442329Y432031D01*
X441846Y430867D01*
X441600Y429630D01*
Y428370D01*
X441846Y427133D01*
X442329Y425969D01*
X443029Y424921D01*
X443921Y424029D01*
X444969Y423329D01*
X446133Y422846D01*
X447370Y422600D01*
X448630D01*
X449867Y422846D01*
X451031Y423329D01*
X452079Y424029D01*
X452971Y424921D01*
X453671Y425969D01*
X454154Y427133D01*
X454400Y428370D01*
Y429630D01*
X454154Y430867D01*
X453671Y432031D01*
X452971Y433079D01*
X452079Y433971D01*
X451031Y434671D01*
X449867Y435154D01*
X448630Y435400D01*
D02*
G37*
G36*
X410750Y413900D02*
X410355D01*
X409109Y413566D01*
X407992Y412921D01*
X407079Y412008D01*
X406434Y410891D01*
X406100Y409645D01*
Y409250D01*
X410750D01*
Y413900D01*
D02*
G37*
G36*
Y408750D02*
X406100D01*
Y408355D01*
X406434Y407109D01*
X407079Y405992D01*
X407992Y405079D01*
X409109Y404434D01*
X410355Y404100D01*
X410750D01*
Y408750D01*
D02*
G37*
G36*
X407171Y373701D02*
X406002D01*
X404855Y373473D01*
X403774Y373025D01*
X402802Y372375D01*
X401975Y371548D01*
X401325Y370576D01*
X400878Y369496D01*
X400650Y368349D01*
Y367179D01*
X400878Y366032D01*
X401325Y364952D01*
X401975Y363979D01*
X402802Y363152D01*
X403774Y362503D01*
X404855Y362055D01*
X406002Y361827D01*
X407171D01*
X408318Y362055D01*
X409399Y362503D01*
X410371Y363152D01*
X411198Y363979D01*
X411848Y364952D01*
X412295Y366032D01*
X412524Y367179D01*
Y368349D01*
X412295Y369496D01*
X411848Y370576D01*
X411198Y371548D01*
X410371Y372375D01*
X409399Y373025D01*
X408318Y373473D01*
X407171Y373701D01*
D02*
G37*
G36*
X387171D02*
X386002D01*
X384855Y373473D01*
X383774Y373025D01*
X382802Y372375D01*
X381975Y371548D01*
X381325Y370576D01*
X380878Y369496D01*
X380650Y368349D01*
Y367179D01*
X380878Y366032D01*
X381325Y364952D01*
X381975Y363979D01*
X382802Y363152D01*
X383774Y362503D01*
X384855Y362055D01*
X386002Y361827D01*
X387171D01*
X388318Y362055D01*
X389399Y362503D01*
X390371Y363152D01*
X391198Y363979D01*
X391848Y364952D01*
X392296Y366032D01*
X392524Y367179D01*
Y368349D01*
X392296Y369496D01*
X391848Y370576D01*
X391198Y371548D01*
X390371Y372375D01*
X389399Y373025D01*
X388318Y373473D01*
X387171Y373701D01*
D02*
G37*
G36*
X407171Y344173D02*
X406002D01*
X404855Y343945D01*
X403774Y343497D01*
X402802Y342848D01*
X401975Y342021D01*
X401325Y341048D01*
X400878Y339968D01*
X400650Y338821D01*
Y337651D01*
X400878Y336504D01*
X401325Y335424D01*
X401975Y334452D01*
X402802Y333625D01*
X403774Y332975D01*
X404855Y332527D01*
X406002Y332299D01*
X407171D01*
X408318Y332527D01*
X409399Y332975D01*
X410371Y333625D01*
X411198Y334452D01*
X411848Y335424D01*
X412295Y336504D01*
X412524Y337651D01*
Y338821D01*
X412295Y339968D01*
X411848Y341048D01*
X411198Y342021D01*
X410371Y342848D01*
X409399Y343497D01*
X408318Y343945D01*
X407171Y344173D01*
D02*
G37*
G36*
X387171D02*
X386002D01*
X384855Y343945D01*
X383774Y343497D01*
X382802Y342848D01*
X381975Y342021D01*
X381325Y341048D01*
X380878Y339968D01*
X380650Y338821D01*
Y337651D01*
X380878Y336504D01*
X381325Y335424D01*
X381975Y334452D01*
X382802Y333625D01*
X383774Y332975D01*
X384855Y332527D01*
X386002Y332299D01*
X387171D01*
X388318Y332527D01*
X389399Y332975D01*
X390371Y333625D01*
X391198Y334452D01*
X391848Y335424D01*
X392296Y336504D01*
X392524Y337651D01*
Y338821D01*
X392296Y339968D01*
X391848Y341048D01*
X391198Y342021D01*
X390371Y342848D01*
X389399Y343497D01*
X388318Y343945D01*
X387171Y344173D01*
D02*
G37*
G36*
X396250Y286896D02*
X395987D01*
X394996Y286630D01*
X394108Y286117D01*
X393383Y285392D01*
X392870Y284504D01*
X392604Y283513D01*
Y283250D01*
X396250D01*
Y286896D01*
D02*
G37*
G36*
X397070Y248205D02*
X395930D01*
X394828Y247910D01*
X393841Y247339D01*
X393035Y246533D01*
X392464Y245546D01*
X392169Y244444D01*
Y243304D01*
X392464Y242202D01*
X393035Y241215D01*
X393841Y240409D01*
X394828Y239838D01*
X395930Y239543D01*
X397070D01*
X398172Y239838D01*
X399159Y240409D01*
X399965Y241215D01*
X400536Y242202D01*
X400831Y243304D01*
Y244444D01*
X400536Y245546D01*
X399965Y246533D01*
X399159Y247339D01*
X398172Y247910D01*
X397070Y248205D01*
D02*
G37*
G36*
X407070Y187457D02*
X405930D01*
X404828Y187162D01*
X403841Y186591D01*
X403035Y185785D01*
X402464Y184798D01*
X402169Y183696D01*
Y182556D01*
X402464Y181454D01*
X403035Y180467D01*
X403841Y179661D01*
X404828Y179090D01*
X405930Y178795D01*
X407070D01*
X408172Y179090D01*
X409159Y179661D01*
X409965Y180467D01*
X410536Y181454D01*
X410831Y182556D01*
Y183696D01*
X410536Y184798D01*
X409965Y185785D01*
X409159Y186591D01*
X408172Y187162D01*
X407070Y187457D01*
D02*
G37*
G36*
X397070D02*
X395930D01*
X394828Y187162D01*
X393841Y186591D01*
X393035Y185785D01*
X392464Y184798D01*
X392169Y183696D01*
Y182556D01*
X392464Y181454D01*
X393035Y180467D01*
X393841Y179661D01*
X394828Y179090D01*
X395930Y178795D01*
X397070D01*
X398172Y179090D01*
X399159Y179661D01*
X399965Y180467D01*
X400536Y181454D01*
X400831Y182556D01*
Y183696D01*
X400536Y184798D01*
X399965Y185785D01*
X399159Y186591D01*
X398172Y187162D01*
X397070Y187457D01*
D02*
G37*
G36*
X317070D02*
X315930D01*
X314828Y187162D01*
X313841Y186591D01*
X313035Y185785D01*
X312464Y184798D01*
X312169Y183696D01*
Y182556D01*
X312464Y181454D01*
X313035Y180467D01*
X313841Y179661D01*
X314828Y179090D01*
X315930Y178795D01*
X317070D01*
X318172Y179090D01*
X319159Y179661D01*
X319965Y180467D01*
X320536Y181454D01*
X320831Y182556D01*
Y183696D01*
X320536Y184798D01*
X319965Y185785D01*
X319159Y186591D01*
X318172Y187162D01*
X317070Y187457D01*
D02*
G37*
G36*
X307070D02*
X305930D01*
X304828Y187162D01*
X303841Y186591D01*
X303035Y185785D01*
X302464Y184798D01*
X302169Y183696D01*
Y182556D01*
X302464Y181454D01*
X303035Y180467D01*
X303841Y179661D01*
X304828Y179090D01*
X305930Y178795D01*
X307070D01*
X308172Y179090D01*
X309159Y179661D01*
X309965Y180467D01*
X310536Y181454D01*
X310831Y182556D01*
Y183696D01*
X310536Y184798D01*
X309965Y185785D01*
X309159Y186591D01*
X308172Y187162D01*
X307070Y187457D01*
D02*
G37*
G36*
X297070D02*
X295930D01*
X294828Y187162D01*
X293841Y186591D01*
X293035Y185785D01*
X292464Y184798D01*
X292169Y183696D01*
Y182556D01*
X292464Y181454D01*
X293035Y180467D01*
X293841Y179661D01*
X294828Y179090D01*
X295930Y178795D01*
X297070D01*
X298172Y179090D01*
X299159Y179661D01*
X299965Y180467D01*
X300536Y181454D01*
X300831Y182556D01*
Y183696D01*
X300536Y184798D01*
X299965Y185785D01*
X299159Y186591D01*
X298172Y187162D01*
X297070Y187457D01*
D02*
G37*
G36*
X287070D02*
X285930D01*
X284828Y187162D01*
X283841Y186591D01*
X283035Y185785D01*
X282464Y184798D01*
X282169Y183696D01*
Y182556D01*
X282464Y181454D01*
X283035Y180467D01*
X283222Y180280D01*
Y151896D01*
X281104D01*
Y150233D01*
X280604Y150026D01*
X279813Y150818D01*
X279778Y150838D01*
Y180280D01*
X279965Y180467D01*
X280536Y181454D01*
X280831Y182556D01*
Y183696D01*
X280536Y184798D01*
X279965Y185785D01*
X279159Y186591D01*
X278172Y187162D01*
X277070Y187457D01*
X275930D01*
X274828Y187162D01*
X273841Y186591D01*
X273035Y185785D01*
X272464Y184798D01*
X272169Y183696D01*
Y182556D01*
X272464Y181454D01*
X273035Y180467D01*
X273222Y180280D01*
Y150838D01*
X273187Y150818D01*
X272182Y149813D01*
X271472Y148583D01*
X271104Y147210D01*
Y145790D01*
X271472Y144417D01*
X272182Y143187D01*
X273187Y142182D01*
X274417Y141472D01*
X275790Y141104D01*
X277210D01*
X278583Y141472D01*
X279813Y142182D01*
X280604Y142974D01*
X281104Y142767D01*
Y141104D01*
X291896D01*
Y151896D01*
X289778D01*
Y180280D01*
X289965Y180467D01*
X290536Y181454D01*
X290831Y182556D01*
Y183696D01*
X290536Y184798D01*
X289965Y185785D01*
X289159Y186591D01*
X288172Y187162D01*
X287070Y187457D01*
D02*
G37*
G36*
X367070D02*
X365930D01*
X364828Y187162D01*
X363841Y186591D01*
X363035Y185785D01*
X362464Y184798D01*
X362169Y183696D01*
Y182556D01*
X362464Y181454D01*
X363035Y180467D01*
X363222Y180280D01*
Y151896D01*
X361104D01*
Y150233D01*
X360604Y150026D01*
X359813Y150818D01*
X359778Y150838D01*
Y180280D01*
X359965Y180467D01*
X360536Y181454D01*
X360831Y182556D01*
Y183696D01*
X360536Y184798D01*
X359965Y185785D01*
X359159Y186591D01*
X358172Y187162D01*
X357070Y187457D01*
X355930D01*
X354828Y187162D01*
X353841Y186591D01*
X353035Y185785D01*
X352464Y184798D01*
X352169Y183696D01*
Y182556D01*
X352464Y181454D01*
X353035Y180467D01*
X353222Y180280D01*
Y150838D01*
X353187Y150818D01*
X352182Y149813D01*
X351750Y149064D01*
X351250D01*
X350818Y149813D01*
X349813Y150818D01*
X349778Y150838D01*
Y180280D01*
X349965Y180467D01*
X350536Y181454D01*
X350831Y182556D01*
Y183696D01*
X350536Y184798D01*
X349965Y185785D01*
X349159Y186591D01*
X348172Y187162D01*
X347070Y187457D01*
X345930D01*
X344828Y187162D01*
X343841Y186591D01*
X343035Y185785D01*
X342464Y184798D01*
X342169Y183696D01*
Y182556D01*
X342464Y181454D01*
X343035Y180467D01*
X343222Y180280D01*
Y150838D01*
X343187Y150818D01*
X342182Y149813D01*
X341750Y149064D01*
X341250D01*
X340818Y149813D01*
X339813Y150818D01*
X339778Y150838D01*
Y180280D01*
X339965Y180467D01*
X340536Y181454D01*
X340831Y182556D01*
Y183696D01*
X340536Y184798D01*
X339965Y185785D01*
X339159Y186591D01*
X338172Y187162D01*
X337070Y187457D01*
X335930D01*
X334828Y187162D01*
X333841Y186591D01*
X333035Y185785D01*
X332464Y184798D01*
X332169Y183696D01*
Y182556D01*
X332464Y181454D01*
X333035Y180467D01*
X333222Y180280D01*
Y150838D01*
X333187Y150818D01*
X332182Y149813D01*
X331750Y149064D01*
X331250D01*
X330818Y149813D01*
X329813Y150818D01*
X329778Y150838D01*
Y180280D01*
X329965Y180467D01*
X330536Y181454D01*
X330831Y182556D01*
Y183696D01*
X330536Y184798D01*
X329965Y185785D01*
X329159Y186591D01*
X328172Y187162D01*
X327070Y187457D01*
X325930D01*
X324828Y187162D01*
X323841Y186591D01*
X323035Y185785D01*
X322464Y184798D01*
X322169Y183696D01*
Y182556D01*
X322464Y181454D01*
X323035Y180467D01*
X323222Y180280D01*
Y150838D01*
X323187Y150818D01*
X322182Y149813D01*
X321472Y148583D01*
X321104Y147210D01*
Y145790D01*
X321472Y144417D01*
X322182Y143187D01*
X323187Y142182D01*
X324417Y141472D01*
X325790Y141104D01*
X327210D01*
X328583Y141472D01*
X329813Y142182D01*
X330818Y143187D01*
X331250Y143936D01*
X331750D01*
X332182Y143187D01*
X333187Y142182D01*
X334417Y141472D01*
X335790Y141104D01*
X337210D01*
X338583Y141472D01*
X339813Y142182D01*
X340818Y143187D01*
X341250Y143936D01*
X341750D01*
X342182Y143187D01*
X343187Y142182D01*
X344417Y141472D01*
X345790Y141104D01*
X347210D01*
X348583Y141472D01*
X349813Y142182D01*
X350818Y143187D01*
X351250Y143936D01*
X351750D01*
X352182Y143187D01*
X353187Y142182D01*
X354417Y141472D01*
X355790Y141104D01*
X357210D01*
X358583Y141472D01*
X359813Y142182D01*
X360604Y142974D01*
X361104Y142767D01*
Y141104D01*
X371896D01*
Y151896D01*
X369778D01*
Y180280D01*
X369965Y180467D01*
X370536Y181454D01*
X370831Y182556D01*
Y183696D01*
X370536Y184798D01*
X369965Y185785D01*
X369159Y186591D01*
X368172Y187162D01*
X367070Y187457D01*
D02*
G37*
G36*
X230396Y146250D02*
X226750D01*
Y142604D01*
X230396D01*
Y146250D01*
D02*
G37*
G36*
X515326Y124000D02*
X514750D01*
Y113750D01*
X525000D01*
Y114326D01*
X524742Y115959D01*
X524231Y117531D01*
X523480Y119003D01*
X522509Y120340D01*
X521340Y121509D01*
X520003Y122480D01*
X518531Y123231D01*
X516959Y123741D01*
X515326Y124000D01*
D02*
G37*
G36*
X514250D02*
X513674D01*
X512041Y123741D01*
X510469Y123231D01*
X508997Y122480D01*
X507660Y121509D01*
X506491Y120340D01*
X505520Y119003D01*
X504769Y117531D01*
X504258Y115959D01*
X504000Y114326D01*
Y113750D01*
X514250D01*
Y124000D01*
D02*
G37*
G36*
X113826D02*
X113250D01*
Y113750D01*
X123500D01*
Y114326D01*
X123241Y115959D01*
X122731Y117531D01*
X121980Y119003D01*
X121009Y120340D01*
X119840Y121509D01*
X118503Y122480D01*
X117031Y123231D01*
X115459Y123741D01*
X113826Y124000D01*
D02*
G37*
G36*
X462000Y131095D02*
X200000D01*
Y106500D01*
X462000D01*
Y131095D01*
D02*
G37*
%LPD*%
G36*
X421961Y470220D02*
Y465111D01*
X421499Y464920D01*
X417400Y469019D01*
Y474128D01*
X417862Y474320D01*
X421961Y470220D01*
D02*
G37*
G36*
X416320Y475862D02*
X416128Y475400D01*
X404600D01*
Y462600D01*
X410981D01*
X414961Y458620D01*
Y454580D01*
X414520Y454345D01*
X414031Y454671D01*
X412867Y455154D01*
X411630Y455400D01*
X410370D01*
X409133Y455154D01*
X407969Y454671D01*
X406920Y453971D01*
X406029Y453080D01*
X405329Y452031D01*
X404846Y450867D01*
X404600Y449630D01*
Y449019D01*
X371587Y416006D01*
X371125Y416198D01*
Y433663D01*
X371207Y433860D01*
X371362Y435034D01*
X371362Y435035D01*
Y480191D01*
X371632Y480461D01*
X411720D01*
X416320Y475862D01*
D02*
G37*
G36*
X462461Y462120D02*
Y444429D01*
X462616Y443254D01*
X463069Y442160D01*
X463791Y441220D01*
X464898Y440112D01*
X464707Y439650D01*
X461427D01*
Y452111D01*
X461273Y453286D01*
X460819Y454381D01*
X460098Y455321D01*
X452539Y462880D01*
Y467062D01*
X452566Y467109D01*
X452900Y468355D01*
Y468750D01*
X448000D01*
Y469250D01*
X452900D01*
Y469645D01*
X452566Y470891D01*
X452455Y471082D01*
X452725Y471615D01*
X452943Y471638D01*
X462461Y462120D01*
D02*
G37*
G36*
X511261Y421820D02*
Y399314D01*
X510799Y399123D01*
X510722Y399200D01*
X509526Y399890D01*
X508191Y400248D01*
X506809D01*
X505778Y399972D01*
X505278Y400322D01*
Y412252D01*
X505969D01*
Y426459D01*
X506430Y426651D01*
X511261Y421820D01*
D02*
G37*
G36*
X488722Y423459D02*
Y420945D01*
Y398358D01*
X486453Y396089D01*
X485953Y396296D01*
Y397152D01*
X485615Y398412D01*
X484963Y399541D01*
X484041Y400463D01*
X482912Y401115D01*
X481652Y401453D01*
X480348D01*
X479088Y401115D01*
X477959Y400463D01*
X477037Y399541D01*
X476385Y398412D01*
X476047Y397152D01*
Y395953D01*
X475348D01*
X474088Y395615D01*
X472959Y394963D01*
X472037Y394041D01*
X471385Y392912D01*
X471047Y391652D01*
Y390348D01*
X471385Y389088D01*
X472037Y387959D01*
X472722Y387274D01*
Y298677D01*
X468130D01*
Y289323D01*
X468722D01*
Y286650D01*
X468260Y286459D01*
X435445Y319274D01*
X435636Y319736D01*
X437390D01*
Y322917D01*
X437890Y323016D01*
X438161Y322361D01*
X438682Y321682D01*
X439361Y321161D01*
X440152Y320834D01*
X441000Y320722D01*
X441848Y320834D01*
X442639Y321161D01*
X443318Y321682D01*
X443839Y322361D01*
X444166Y323152D01*
X444278Y324000D01*
Y354863D01*
X450098Y360682D01*
X450619Y361361D01*
X450946Y362152D01*
X451058Y363000D01*
X450946Y363848D01*
X450619Y364639D01*
X450098Y365318D01*
X449419Y365839D01*
X448628Y366166D01*
X447780Y366278D01*
X446931Y366166D01*
X446141Y365839D01*
X445462Y365318D01*
X438862Y358718D01*
X438362Y358926D01*
Y360943D01*
X451209Y373791D01*
X451931Y374731D01*
X452384Y375825D01*
X452539Y377000D01*
Y402600D01*
X454400D01*
Y404461D01*
X478500D01*
X479675Y404616D01*
X480769Y405069D01*
X481709Y405791D01*
X485209Y409291D01*
X485931Y410231D01*
X486384Y411325D01*
X486539Y412500D01*
X486539Y412500D01*
Y420945D01*
X486384Y422120D01*
X485968Y423123D01*
Y425559D01*
X486430Y425751D01*
X488722Y423459D01*
D02*
G37*
G36*
X511261Y390686D02*
Y344736D01*
X505278D01*
Y389678D01*
X505778Y390028D01*
X506809Y389752D01*
X508191D01*
X509526Y390110D01*
X510722Y390800D01*
X510799Y390877D01*
X511261Y390686D01*
D02*
G37*
G36*
X502982Y430100D02*
X502790Y429638D01*
X498032D01*
Y412252D01*
X498722D01*
Y339488D01*
X498834Y338640D01*
X499161Y337849D01*
X499682Y337170D01*
X500361Y336649D01*
X501152Y336322D01*
X502000Y336210D01*
X502252D01*
Y334240D01*
X511261D01*
Y281180D01*
X487806Y257724D01*
X486838D01*
X485539Y257466D01*
X484315Y256959D01*
X483213Y256223D01*
X482668Y255678D01*
X482168Y255885D01*
Y289323D01*
X482760D01*
Y298677D01*
X479278D01*
Y387274D01*
X479963Y387959D01*
X480615Y389088D01*
X480953Y390348D01*
Y391547D01*
X481652D01*
X482140Y391678D01*
X482547Y391269D01*
Y391250D01*
X486000D01*
Y391000D01*
X486250D01*
Y387547D01*
X486455D01*
X487333Y387783D01*
X488120Y388237D01*
X488763Y388880D01*
X489100Y389465D01*
X494318Y394682D01*
X494839Y395361D01*
X495166Y396152D01*
X495222Y396576D01*
X495278Y397000D01*
Y420945D01*
Y423480D01*
X495931Y424331D01*
X496384Y425425D01*
X496539Y426600D01*
X496384Y427775D01*
X495931Y428869D01*
X495209Y429809D01*
X488520Y436499D01*
X488711Y436961D01*
X496120D01*
X502982Y430100D01*
D02*
G37*
G36*
X438381Y358145D02*
X438161Y357859D01*
X437834Y357069D01*
X437778Y356645D01*
X437722Y356220D01*
Y328626D01*
X437390Y328264D01*
X437222Y328264D01*
X431039D01*
Y358638D01*
X432772D01*
X432825Y358616D01*
X434000Y358461D01*
X435175Y358616D01*
X435228Y358638D01*
X438128D01*
X438381Y358145D01*
D02*
G37*
G36*
X416291Y252591D02*
X425742Y243139D01*
X425551Y242677D01*
X423185D01*
Y234104D01*
X422723Y233913D01*
X415278Y241358D01*
Y253089D01*
X415778Y253258D01*
X416291Y252591D01*
D02*
G37*
G36*
X443222Y216542D02*
Y207913D01*
X433986Y198677D01*
X430333D01*
Y199942D01*
X436263Y205872D01*
X436784Y206551D01*
X437111Y207341D01*
X437223Y208190D01*
Y215500D01*
Y221888D01*
X437685Y222079D01*
X443222Y216542D01*
D02*
G37*
G36*
X490222Y207942D02*
Y198485D01*
X489722Y198151D01*
X488961Y198466D01*
X487662Y198724D01*
X486338D01*
X485039Y198466D01*
X483815Y197959D01*
X482713Y197223D01*
X481777Y196287D01*
X481041Y195185D01*
X480534Y193961D01*
X480276Y192662D01*
Y191338D01*
X480534Y190039D01*
X481041Y188815D01*
X481777Y187713D01*
X482713Y186777D01*
X483815Y186041D01*
X485039Y185534D01*
X486338Y185276D01*
X487662D01*
X488961Y185534D01*
X489722Y185849D01*
X490222Y185515D01*
Y178485D01*
X489722Y178151D01*
X488961Y178466D01*
X487662Y178724D01*
X486694D01*
X476339Y189080D01*
Y221118D01*
X476839Y221325D01*
X490222Y207942D01*
D02*
G37*
G36*
X467261Y274620D02*
Y187200D01*
X467416Y186025D01*
X467869Y184931D01*
X468591Y183991D01*
X480276Y172306D01*
Y171338D01*
X480534Y170039D01*
X480829Y169326D01*
X480478Y168868D01*
X480400Y168878D01*
X448342D01*
Y177437D01*
X439599D01*
X437223Y179813D01*
Y189323D01*
X437815D01*
Y193234D01*
X448818Y204237D01*
X449339Y204916D01*
X449666Y205707D01*
X449778Y206555D01*
Y217900D01*
X449666Y218748D01*
X449339Y219539D01*
X448818Y220218D01*
X436175Y232861D01*
X436366Y233323D01*
X437815D01*
Y235651D01*
X437876Y235731D01*
X438329Y236825D01*
X438484Y238000D01*
Y241355D01*
X438329Y242530D01*
X437876Y243625D01*
X437154Y244565D01*
X424039Y257680D01*
Y317189D01*
X424501Y317380D01*
X467261Y274620D01*
D02*
G37*
%LPC*%
G36*
X485750Y390750D02*
X482547D01*
Y390545D01*
X482783Y389667D01*
X483237Y388880D01*
X483880Y388237D01*
X484667Y387783D01*
X485545Y387547D01*
X485750D01*
Y390750D01*
D02*
G37*
G36*
X448396Y288396D02*
X437604D01*
Y277604D01*
X439267D01*
X439474Y277104D01*
X438682Y276313D01*
X437972Y275083D01*
X437604Y273710D01*
Y272290D01*
X437972Y270917D01*
X438682Y269687D01*
X439687Y268682D01*
X440436Y268250D01*
Y267750D01*
X439687Y267318D01*
X438682Y266313D01*
X437972Y265083D01*
X437604Y263710D01*
Y262290D01*
X437972Y260917D01*
X438682Y259687D01*
X439687Y258682D01*
X440917Y257972D01*
X442290Y257604D01*
X443710D01*
X445083Y257972D01*
X446313Y258682D01*
X447318Y259687D01*
X448028Y260917D01*
X448396Y262290D01*
Y263710D01*
X448028Y265083D01*
X447318Y266313D01*
X446313Y267318D01*
X445564Y267750D01*
Y268250D01*
X446313Y268682D01*
X447318Y269687D01*
X448028Y270917D01*
X448396Y272290D01*
Y273710D01*
X448028Y275083D01*
X447318Y276313D01*
X446526Y277104D01*
X446733Y277604D01*
X448396D01*
Y288396D01*
D02*
G37*
G36*
X176250Y407750D02*
X175941D01*
X174860Y407460D01*
X173890Y406901D01*
X173099Y406110D01*
X172540Y405140D01*
X172250Y404060D01*
Y403750D01*
X176250D01*
Y407750D01*
D02*
G37*
G36*
Y403250D02*
X172250D01*
Y402941D01*
X172540Y401860D01*
X173099Y400890D01*
X173890Y400099D01*
X174860Y399540D01*
X175941Y399250D01*
X176250D01*
Y403250D01*
D02*
G37*
G36*
X212764Y363764D02*
X210250D01*
Y361250D01*
X212764D01*
Y363764D01*
D02*
G37*
G36*
Y360750D02*
X210250D01*
Y358236D01*
X212764D01*
Y360750D01*
D02*
G37*
G36*
X312513Y286896D02*
X312250D01*
Y283250D01*
X315896D01*
Y283513D01*
X315630Y284504D01*
X315117Y285392D01*
X314392Y286117D01*
X313504Y286630D01*
X312513Y286896D01*
D02*
G37*
G36*
X315896Y282750D02*
X312250D01*
Y279104D01*
X312513D01*
X313504Y279370D01*
X314392Y279883D01*
X315117Y280608D01*
X315630Y281496D01*
X315896Y282487D01*
Y282750D01*
D02*
G37*
G36*
X183750Y261250D02*
X180104D01*
Y257604D01*
X183750D01*
Y261250D01*
D02*
G37*
%LPD*%
D14*
X203000Y117497D02*
Y111499D01*
X205999D01*
X206999Y112499D01*
Y116498D01*
X205999Y117497D01*
X203000D01*
X211997Y111499D02*
X209998D01*
X208998Y112499D01*
Y114498D01*
X209998Y115498D01*
X211997D01*
X212997Y114498D01*
Y113499D01*
X208998D01*
X214996Y111499D02*
X217995D01*
X218995Y112499D01*
X217995Y113499D01*
X215996D01*
X214996Y114498D01*
X215996Y115498D01*
X218995D01*
X220994Y111499D02*
X222993D01*
X221994D01*
Y115498D01*
X220994D01*
X227992Y109500D02*
X228992D01*
X229991Y110500D01*
Y115498D01*
X226992D01*
X225993Y114498D01*
Y112499D01*
X226992Y111499D01*
X229991D01*
X231991D02*
Y115498D01*
X234990D01*
X235989Y114498D01*
Y111499D01*
X240988D02*
X238988D01*
X237989Y112499D01*
Y114498D01*
X238988Y115498D01*
X240988D01*
X241987Y114498D01*
Y113499D01*
X237989D01*
X247985Y117497D02*
Y111499D01*
X244986D01*
X243987Y112499D01*
Y114498D01*
X244986Y115498D01*
X247985D01*
X255983Y117497D02*
Y111499D01*
X258982D01*
X259982Y112499D01*
Y113499D01*
Y114498D01*
X258982Y115498D01*
X255983D01*
X261981D02*
Y112499D01*
X262981Y111499D01*
X265980D01*
Y110500D01*
X264980Y109500D01*
X263980D01*
X265980Y111499D02*
Y115498D01*
X273977Y111499D02*
Y115498D01*
X275976Y117497D01*
X277976Y115498D01*
Y111499D01*
Y114498D01*
X273977D01*
X279975Y115498D02*
X283974Y111499D01*
X281974Y113499D01*
X283974Y115498D01*
X279975Y111499D01*
X288972D02*
X286973D01*
X285973Y112499D01*
Y114498D01*
X286973Y115498D01*
X288972D01*
X289972Y114498D01*
Y113499D01*
X285973D01*
X291971Y111499D02*
X293971D01*
X292971D01*
Y117497D01*
X291971D01*
X302968D02*
Y113499D01*
X304967Y111499D01*
X306966Y113499D01*
Y117497D01*
X309965Y115498D02*
X311965D01*
X312964Y114498D01*
Y111499D01*
X309965D01*
X308966Y112499D01*
X309965Y113499D01*
X312964D01*
X314964Y111499D02*
Y115498D01*
X317963D01*
X318963Y114498D01*
Y111499D01*
X320962Y117497D02*
Y111499D01*
Y114498D01*
X321961Y115498D01*
X323961D01*
X324961Y114498D01*
Y111499D01*
X329959D02*
X327960D01*
X326960Y112499D01*
Y114498D01*
X327960Y115498D01*
X329959D01*
X330959Y114498D01*
Y113499D01*
X326960D01*
X332958Y115498D02*
Y111499D01*
Y113499D01*
X333958Y114498D01*
X334957Y115498D01*
X335957D01*
X338956Y111499D02*
X340955D01*
X339956D01*
Y117497D01*
X338956D01*
X346953Y111499D02*
X344954D01*
X343954Y112499D01*
Y114498D01*
X344954Y115498D01*
X346953D01*
X347953Y114498D01*
Y113499D01*
X343954D01*
X355950Y111499D02*
X359949Y115498D01*
X367947D02*
X371945Y111499D01*
X369946Y113499D01*
X371945Y115498D01*
X367947Y111499D01*
X376944D02*
X374944D01*
X373945Y112499D01*
Y114498D01*
X374944Y115498D01*
X376944D01*
X377943Y114498D01*
Y113499D01*
X373945D01*
X379943Y111499D02*
X381942D01*
X380942D01*
Y117497D01*
X379943D01*
X384941Y111499D02*
Y115498D01*
X387940D01*
X388940Y114498D01*
Y111499D01*
X391939D02*
X393938D01*
X394938Y112499D01*
Y114498D01*
X393938Y115498D01*
X391939D01*
X390939Y114498D01*
Y112499D01*
X391939Y111499D01*
X397937D02*
Y116498D01*
Y114498D01*
X396937D01*
X398937D01*
X397937D01*
Y116498D01*
X398937Y117497D01*
X404935Y111499D02*
X402935D01*
X401936Y112499D01*
Y114498D01*
X402935Y115498D01*
X404935D01*
X405934Y114498D01*
Y113499D01*
X401936D01*
X408933Y115498D02*
X410933D01*
X411932Y114498D01*
Y111499D01*
X408933D01*
X407934Y112499D01*
X408933Y113499D01*
X411932D01*
X413932Y115498D02*
Y111499D01*
Y113499D01*
X414931Y114498D01*
X415931Y115498D01*
X416931D01*
X419930Y110500D02*
X423928D01*
X425928Y117497D02*
X429927D01*
Y116498D01*
X425928Y112499D01*
Y111499D01*
X434925D02*
Y117497D01*
X431926Y114498D01*
X435925D01*
D15*
X160110Y140000D02*
D03*
X167000D02*
D03*
X185055Y162000D02*
D03*
X191945D02*
D03*
X234000Y394000D02*
D03*
X240890D02*
D03*
X267555Y412000D02*
D03*
X274445D02*
D03*
X240890D02*
D03*
X234000D02*
D03*
X145445Y392000D02*
D03*
X138555D02*
D03*
X267555Y310500D02*
D03*
X274445D02*
D03*
X240890D02*
D03*
X234000D02*
D03*
X274445Y334000D02*
D03*
X267555D02*
D03*
X240890Y331000D02*
D03*
X234000D02*
D03*
X274445Y353000D02*
D03*
X267555D02*
D03*
X240890D02*
D03*
X234000D02*
D03*
X274445Y373500D02*
D03*
X267555D02*
D03*
X274445Y394000D02*
D03*
X267555D02*
D03*
Y430500D02*
D03*
X274445D02*
D03*
X234000D02*
D03*
X240890D02*
D03*
X267555Y450000D02*
D03*
X274445D02*
D03*
X234000D02*
D03*
X240890D02*
D03*
X191945Y140000D02*
D03*
X185055D02*
D03*
X160110Y162000D02*
D03*
X167000D02*
D03*
X141945D02*
D03*
X135055D02*
D03*
X117000D02*
D03*
X110110D02*
D03*
X141945Y182000D02*
D03*
X135055D02*
D03*
X117000D02*
D03*
X110110D02*
D03*
X135055Y202000D02*
D03*
X141945D02*
D03*
X117000D02*
D03*
X110110D02*
D03*
X135055Y225000D02*
D03*
X141945D02*
D03*
X117000D02*
D03*
X110110D02*
D03*
X141945Y245500D02*
D03*
X135055D02*
D03*
X117000D02*
D03*
X110110D02*
D03*
X141945Y267000D02*
D03*
X135055D02*
D03*
X117000D02*
D03*
X110110D02*
D03*
X433945Y238000D02*
D03*
X427055D02*
D03*
X433945Y194000D02*
D03*
X427055D02*
D03*
X478890Y294000D02*
D03*
X472000D02*
D03*
X427055Y215500D02*
D03*
X433945D02*
D03*
X145445Y373500D02*
D03*
X138555D02*
D03*
Y355000D02*
D03*
X145445D02*
D03*
D16*
X239315Y373500D02*
D03*
X234000D02*
D03*
D17*
X492000Y462677D02*
D03*
D18*
X502000Y420945D02*
D03*
X492000D02*
D03*
X482000D02*
D03*
D19*
X443882Y171500D02*
D03*
X429118D02*
D03*
D27*
X306665Y338236D02*
D03*
D28*
Y367764D02*
D03*
X386587Y338236D02*
D03*
X366587D02*
D03*
X406587D02*
D03*
Y367764D02*
D03*
X386587D02*
D03*
X366587D02*
D03*
D53*
X366823Y435034D02*
Y482071D01*
X369752Y485000D01*
X413600D02*
X426500Y472100D01*
X369752Y485000D02*
X413600D01*
X193250Y370704D02*
Y416250D01*
X167500Y442000D02*
X193250Y416250D01*
X178000Y339898D02*
X199899Y361796D01*
X189296Y366750D02*
X193250Y370704D01*
X199000Y403500D02*
X199899Y402601D01*
Y362666D02*
Y402601D01*
Y361796D02*
Y362666D01*
X165741Y450741D02*
X180000Y465000D01*
X167500Y442000D02*
Y442245D01*
X165741Y444004D02*
Y450741D01*
X180000Y465000D02*
Y474000D01*
X165741Y444004D02*
X167500Y442245D01*
X159000Y453000D02*
X170000Y464000D01*
Y474000D01*
X159000Y391000D02*
Y453000D01*
X172346Y337347D02*
Y337522D01*
X132500Y318000D02*
X153000D01*
X172346Y337347D01*
Y337522D02*
X174723Y339898D01*
X178000D01*
X191574Y361250D02*
X194399Y364075D01*
X152496Y330996D02*
X182750Y361250D01*
X151695Y366750D02*
X189296D01*
X182750Y361250D02*
X191574D01*
X123368Y330996D02*
X152496D01*
X120439Y328067D02*
X123368Y330996D01*
X120439Y310996D02*
X132500Y298935D01*
Y298000D02*
Y298935D01*
X145445Y373000D02*
X151695Y366750D01*
X120439Y310996D02*
Y328067D01*
X153000Y406000D02*
Y467000D01*
X147221Y400221D02*
X153000Y406000D01*
X147221Y393776D02*
Y400221D01*
X145445Y392000D02*
X147221Y393776D01*
X153000Y467000D02*
X160000Y474000D01*
X419500Y255800D02*
Y460500D01*
Y255800D02*
X433945Y241355D01*
X411000Y469000D02*
X419500Y460500D01*
X448000Y461000D02*
Y469000D01*
Y461000D02*
X456888Y452111D01*
Y436576D02*
Y452111D01*
X458353Y435112D02*
X483489D01*
X492000Y426600D01*
X456888Y436576D02*
X458353Y435112D01*
X467000Y444429D02*
Y464000D01*
X444935Y476400D02*
X454600D01*
X467000Y464000D01*
X469929Y441500D02*
X498000D01*
X440000Y471465D02*
X444935Y476400D01*
X467000Y444429D02*
X469929Y441500D01*
X366587Y404587D02*
X411000Y449000D01*
X366587Y404587D02*
Y434798D01*
X366823Y435034D01*
X426500Y321800D02*
Y472100D01*
Y321800D02*
X471800Y276500D01*
Y187200D02*
X487000Y172000D01*
X366587Y367764D02*
Y404587D01*
X471800Y187200D02*
Y276500D01*
X434000Y363000D02*
X448000Y377000D01*
Y409000D01*
X478500D01*
X482000Y412500D01*
Y420945D01*
X440000Y457000D02*
X448000Y449000D01*
X440000Y457000D02*
Y471465D01*
X498000Y441500D02*
X515800Y423700D01*
Y279300D02*
Y423700D01*
X487500Y251000D02*
X515800Y279300D01*
X358500Y330150D02*
X366587Y338236D01*
X358500Y277700D02*
Y330150D01*
Y277700D02*
X371500Y264700D01*
Y236800D02*
X381000Y227300D01*
X159000Y391000D02*
X176500Y373500D01*
X433945Y238000D02*
Y241355D01*
D54*
X131200Y443914D02*
X134052Y446766D01*
X140348Y446911D02*
X141000Y447563D01*
X134052Y446766D02*
X137833D01*
X137978Y446911D01*
X140348D01*
X306500Y233126D02*
Y243874D01*
X305374Y232000D02*
X306500Y233126D01*
X332000Y283000D02*
X340581Y274419D01*
Y238400D02*
Y274419D01*
X334181Y232000D02*
X340581Y238400D01*
X305374Y232000D02*
X334181D01*
X256500Y183126D02*
X305374Y232000D01*
X219100Y390600D02*
X234000D01*
X240890Y307904D02*
X267555D01*
X237569Y373500D02*
Y383800D01*
X310600Y240000D02*
X313059Y237541D01*
X298700Y262500D02*
X310600Y250600D01*
Y240000D02*
Y250600D01*
X352500Y239700D02*
X376500Y215700D01*
X352500Y239700D02*
Y242103D01*
X352419Y242184D02*
X352500Y242103D01*
X352419Y242184D02*
Y245564D01*
X352500Y245645D01*
X289300Y394000D02*
X352500Y330800D01*
Y245645D02*
Y330800D01*
X131200Y382700D02*
Y443914D01*
X116189Y333012D02*
X120700Y337523D01*
Y262500D02*
Y295501D01*
X116189Y300011D02*
X120700Y295501D01*
X116189Y300011D02*
Y333012D01*
X120700Y262455D02*
X135055D01*
X110110D02*
X120700D01*
Y337523D02*
Y361300D01*
X167000Y139200D02*
Y140000D01*
X164655Y149545D02*
X166110Y151000D01*
X160110Y145000D02*
X164655Y149545D01*
X156490Y135573D02*
Y150000D01*
X163373Y135573D02*
X167000Y139200D01*
X156490Y135573D02*
X163373D01*
X164655Y149545D02*
X166200Y148000D01*
X156490Y150000D02*
X163990Y157500D01*
X430000Y234400D02*
X446500Y217900D01*
X433945Y194000D02*
X446500Y206555D01*
Y217900D01*
X396500Y283000D02*
X412000Y267500D01*
Y240000D02*
X422500Y229500D01*
X412000Y240000D02*
Y267500D01*
X422500Y229500D02*
X428900D01*
X433945Y224455D01*
X427055Y234400D02*
Y238000D01*
Y234400D02*
X430000D01*
X433945Y215500D02*
Y224455D01*
Y208190D02*
Y215500D01*
X423400Y165600D02*
Y214700D01*
X480500Y165500D02*
X491700D01*
X423400Y165600D02*
X480400D01*
X427055Y214700D02*
Y215500D01*
X480400Y165600D02*
X480500Y165500D01*
X423400Y214700D02*
X427055D01*
X492000Y420945D02*
Y426600D01*
Y397000D02*
Y420945D01*
X440000Y172400D02*
X443882D01*
X138555Y355000D02*
Y361645D01*
X134900Y365300D02*
X138555Y361645D01*
X134900Y365300D02*
Y379000D01*
X131200Y382700D02*
X134900Y379000D01*
X243600Y382700D02*
X245000D01*
X250100Y377600D01*
Y360000D02*
Y377600D01*
Y360000D02*
X266400Y343700D01*
X271545D01*
X274445Y340800D01*
Y334000D02*
Y340800D01*
X141945Y175945D02*
Y182000D01*
X123573Y157573D02*
X141945Y175945D01*
X106490Y157573D02*
X123573D01*
X106490D02*
Y166427D01*
X117000Y176937D01*
Y182000D01*
X141945D02*
X181500D01*
X209419Y209919D01*
Y256700D01*
X215404Y262684D01*
Y326970D01*
X208374Y334000D02*
X215404Y326970D01*
X256500Y156500D02*
Y183126D01*
X246500Y146500D02*
X256500Y156500D01*
X283102Y361800D02*
X306665Y338236D01*
X275000Y361800D02*
X283102D01*
X267555Y369245D02*
X275000Y361800D01*
X267555Y369245D02*
Y373500D01*
X217874Y361000D02*
X230500D01*
X234000Y357500D01*
Y360500D02*
X239315Y365815D01*
X234000Y353000D02*
Y357500D01*
Y360500D01*
X239315Y365815D02*
Y373500D01*
X234000Y345390D02*
Y353000D01*
Y345390D02*
X240890Y338500D01*
Y331000D02*
Y338500D01*
X502000Y339488D02*
X507500D01*
X502000D02*
Y420945D01*
X240890Y310500D02*
Y331000D01*
Y307904D02*
Y310500D01*
X267555Y307904D02*
Y310500D01*
X237569Y373500D02*
X239315D01*
X234000Y387369D02*
X237569Y383800D01*
X234000Y387369D02*
Y390600D01*
X214700Y395000D02*
X219100Y390600D01*
X234000D02*
Y394000D01*
X213000Y395000D02*
X214700D01*
X234000Y394000D02*
X235590Y399700D01*
X240890Y405000D01*
Y412000D01*
X267555D01*
X240890D02*
Y415410D01*
X234000Y421300D02*
X240890Y415410D01*
X234000Y421300D02*
Y430500D01*
Y435000D02*
Y450000D01*
X228500Y440500D02*
X234000Y435000D01*
X201220Y436000D02*
X205720Y440500D01*
X234000Y430500D02*
Y435000D01*
X205720Y440500D02*
X228500D01*
X267555Y412000D02*
Y415000D01*
X271038Y418482D01*
X274082D01*
X278100Y422500D01*
Y435600D01*
X267555D02*
X278100D01*
X267555Y430500D02*
Y435600D01*
Y450000D01*
X103490Y123010D02*
X113000Y113500D01*
X103490Y123010D02*
Y169427D01*
X110110Y176047D01*
Y182000D01*
Y202000D01*
X198445Y146500D02*
X226500D01*
X191945Y140000D02*
X198445Y146500D01*
X110110Y202000D02*
Y206610D01*
X117000Y213500D01*
Y225000D01*
X188700Y143245D02*
X191945Y140000D01*
X188700Y143245D02*
Y144500D01*
X171500D02*
X188700D01*
X167000Y140000D02*
X171500Y144500D01*
X117000Y225000D02*
Y234800D01*
X110110Y241690D02*
X117000Y234800D01*
X110110Y241690D02*
Y245500D01*
X135055Y267000D02*
Y270000D01*
X169055Y304000D01*
X177626D01*
X163990Y157500D02*
X191945D01*
Y162000D01*
X135055Y262455D02*
Y267000D01*
X110110Y262500D02*
X120700D01*
X131500Y350500D02*
X145445D01*
X135055Y245500D02*
Y262455D01*
X110110D02*
Y262500D01*
X145445Y350500D02*
Y355000D01*
X110110Y245500D02*
Y262455D01*
X120700Y361300D02*
X131500Y350500D01*
X110110Y262500D02*
Y267000D01*
X113000Y369000D02*
X120700Y361300D01*
X107800Y374200D02*
X113000Y369000D01*
X107800Y374200D02*
Y417800D01*
X113000Y423000D01*
X177626Y304000D02*
X189500Y292126D01*
Y267000D02*
Y292126D01*
X184000Y261500D02*
X189500Y267000D01*
X173500Y308126D02*
X177626Y304000D01*
X173500Y308126D02*
Y329874D01*
X177626Y334000D01*
X107800Y428200D02*
X113000Y423000D01*
X107800Y428200D02*
Y477500D01*
X113000Y482700D01*
Y502000D01*
X215000Y400874D02*
X220874Y395000D01*
X215000Y400874D02*
Y436000D01*
X486000Y391000D02*
X492000Y397000D01*
X441000Y356220D02*
X447780Y363000D01*
X441000Y324000D02*
Y356220D01*
X427055Y201300D02*
X433945Y208190D01*
X427055Y194000D02*
Y201300D01*
X266500Y283000D02*
X278100Y294600D01*
Y315000D01*
X270900Y322200D02*
X278100Y315000D01*
X263890Y322200D02*
X270900D01*
X240890Y345200D02*
X263890Y322200D01*
X240890Y345200D02*
Y353000D01*
X427055Y183763D02*
Y194000D01*
Y183763D02*
X429118Y181700D01*
Y171500D02*
Y181700D01*
X240890Y353000D02*
Y362300D01*
X242700Y364110D01*
Y377637D01*
X240569Y379768D02*
X242700Y377637D01*
X240569Y379768D02*
Y384610D01*
X240890Y384931D01*
Y394000D01*
X267555D01*
Y387190D02*
Y394000D01*
Y387190D02*
X274445Y380300D01*
Y373500D02*
Y380300D01*
X113000Y453000D02*
X140000Y480000D01*
X230890D01*
X240890Y470000D01*
X265910Y478590D02*
X274445Y470055D01*
X240890Y450000D02*
Y470000D01*
X249480Y478590D01*
X265910D01*
X274445Y450000D02*
Y470055D01*
X240890Y442900D02*
X250000Y452010D01*
X240890Y430500D02*
Y442900D01*
Y425300D02*
Y430500D01*
Y425300D02*
X274445D01*
Y430500D01*
X113000Y433000D02*
X124400Y421600D01*
Y363100D02*
Y421600D01*
Y363100D02*
X133800Y353700D01*
X232700Y402500D02*
X234000Y403800D01*
Y405300D01*
X274445D02*
Y412000D01*
X234000Y405300D02*
Y412000D01*
X167000Y162000D02*
X185055D01*
Y170245D01*
X110110Y162000D02*
Y165200D01*
X111410Y166500D01*
X190700Y151000D02*
X212419Y172719D01*
Y248619D01*
X218404Y254604D01*
Y329996D01*
X209400Y339000D02*
X218404Y329996D01*
X204300Y335800D02*
X207500Y339000D01*
X204300Y308074D02*
Y335800D01*
X160110Y140000D02*
Y145000D01*
X166110Y151000D02*
X190700D01*
X207500Y339000D02*
X209400D01*
X204300Y308074D02*
X208374Y304000D01*
X221500Y179500D02*
Y331700D01*
X205900Y347300D02*
X221500Y331700D01*
X205900Y347300D02*
Y365500D01*
X210000Y369600D01*
X234000D01*
Y373500D01*
X376500Y183126D02*
Y215700D01*
X274445Y394000D02*
X289300D01*
X110110Y225000D02*
Y229500D01*
X106400Y233210D02*
X110110Y229500D01*
X106400Y233210D02*
Y271600D01*
X117000D01*
Y267000D02*
Y271600D01*
X110110Y217600D02*
Y225000D01*
X141945Y202000D02*
Y225000D01*
Y245500D01*
Y267000D01*
Y225000D02*
X159700D01*
X192500Y257800D01*
Y301500D01*
X180000Y314000D02*
X192500Y301500D01*
X177626Y314000D02*
X180000D01*
X177626D02*
Y324000D01*
X267555Y353000D02*
Y357500D01*
X282400D01*
X297300Y342600D01*
Y329800D02*
Y342600D01*
Y329800D02*
X322000Y305100D01*
Y293000D02*
Y305100D01*
X320167Y237541D02*
X326500Y243874D01*
X313059Y237541D02*
X320167D01*
X298700Y262500D02*
Y323545D01*
X274445Y347800D02*
X298700Y323545D01*
X274445Y347800D02*
Y353000D01*
X491700Y165500D02*
X493500Y167300D01*
Y209300D01*
X478890Y223910D02*
X493500Y209300D01*
X478890Y223910D02*
Y294000D01*
X476000Y296890D02*
X478890Y294000D01*
X476000Y296890D02*
Y391000D01*
X430100Y187400D02*
X433945Y191245D01*
X443882Y171500D02*
Y172400D01*
X433945Y191245D02*
Y194000D01*
Y178455D02*
Y191245D01*
Y178455D02*
X440000Y172400D01*
X185055Y135128D02*
Y140000D01*
X182500Y132573D02*
X185055Y135128D01*
X153490Y132573D02*
X182500D01*
X135055Y151008D02*
X153490Y132573D01*
X171300Y190000D02*
X187500Y206200D01*
Y243400D02*
X209500Y265400D01*
Y297500D01*
X212404Y300404D02*
Y309600D01*
X208374Y313630D02*
Y314000D01*
X135055Y151008D02*
Y162000D01*
Y142300D02*
Y151008D01*
X187500Y206200D02*
Y243400D01*
X209500Y297500D02*
X212404Y300404D01*
X208374Y313630D02*
X212404Y309600D01*
X141945Y162000D02*
X160110D01*
X141945D02*
Y166245D01*
X172100Y196400D02*
Y233157D01*
X195500Y256557D01*
Y311126D01*
X252400Y171800D02*
Y187200D01*
X291700Y226500D01*
Y309800D01*
X272000Y329500D02*
X291700Y309800D01*
X267555Y329500D02*
X272000D01*
X267555D02*
Y334000D01*
X226500Y156500D02*
Y183126D01*
Y156500D02*
X236500Y146500D01*
X226500Y183126D02*
X230600Y187226D01*
Y301800D01*
X230300Y302100D02*
X230600Y301800D01*
X230300Y302100D02*
Y320800D01*
X234000Y324500D01*
Y331000D01*
X276500Y146500D02*
Y183126D01*
X286500Y146500D02*
Y183126D01*
X326500Y146500D02*
Y183126D01*
X336500Y146500D02*
Y183126D01*
X346500Y146500D02*
Y183126D01*
X356500Y146500D02*
Y183126D01*
X366500Y146500D02*
Y183126D01*
X471900Y284800D02*
X472000Y284900D01*
Y294000D01*
X386500Y243874D02*
Y283000D01*
X376500Y243874D02*
Y283000D01*
X332000Y293000D02*
X346500Y278500D01*
Y243874D02*
Y278500D01*
X322000Y258374D02*
Y283000D01*
Y258374D02*
X336500Y243874D01*
X316500D02*
Y258400D01*
X306500Y268400D02*
X316500Y258400D01*
X306500Y268400D02*
Y287500D01*
X312000Y293000D01*
X286500Y243874D02*
Y283000D01*
X276500Y243874D02*
Y283000D01*
X261300Y249074D02*
X266500Y243874D01*
X261300Y249074D02*
Y293855D01*
X274445Y307000D01*
Y310500D01*
X234000Y266374D02*
X256500Y243874D01*
X234000Y266374D02*
Y310500D01*
X117000Y162000D02*
Y165000D01*
X124000Y172000D01*
X130000D01*
X135055Y177055D01*
Y182000D01*
Y202000D01*
X117000D02*
X135055D01*
Y213700D01*
X117000Y239100D02*
Y245500D01*
Y239100D02*
X120000Y236100D01*
X130000D01*
X135055Y231045D01*
Y225000D02*
Y231045D01*
X138555Y373500D02*
Y380745D01*
X134600Y384700D02*
X138555Y380745D01*
X134600Y384700D02*
Y401850D01*
X141000Y408250D01*
Y413000D01*
Y437063D01*
X136000Y442063D02*
X141000Y437063D01*
X138555Y392000D02*
Y399755D01*
X146000Y407200D01*
Y413000D01*
X145445Y373000D02*
Y373500D01*
D55*
X371500Y236800D02*
Y264700D01*
X381000Y185670D02*
Y227300D01*
Y185670D02*
X381481Y185189D01*
Y181063D02*
Y185189D01*
X381000Y180582D02*
X381481Y181063D01*
X381000Y172600D02*
Y180582D01*
Y172600D02*
X381800Y171800D01*
D56*
X113000Y502000D02*
D03*
X514500Y113500D02*
D03*
X113000D02*
D03*
X515000Y502000D02*
D03*
D57*
X167500Y442000D02*
D03*
X172500Y447500D02*
D03*
X177500Y442000D02*
D03*
X136000Y442063D02*
D03*
X141000Y447563D02*
D03*
X146000Y442063D02*
D03*
X476000Y391000D02*
D03*
X481000Y396500D02*
D03*
X486000Y391000D02*
D03*
X360870Y437500D02*
D03*
D58*
X321500D02*
D03*
D59*
X396500Y283000D02*
D03*
X386500D02*
D03*
X376500D02*
D03*
X326500Y146500D02*
D03*
X336500D02*
D03*
X346500D02*
D03*
X356500D02*
D03*
X443000Y263000D02*
D03*
Y273000D02*
D03*
X266500Y283000D02*
D03*
X276500D02*
D03*
X332000D02*
D03*
X322000Y293000D02*
D03*
Y283000D02*
D03*
X312000Y293000D02*
D03*
Y283000D02*
D03*
X246500Y146500D02*
D03*
X236500D02*
D03*
X276500D02*
D03*
X113000Y389000D02*
D03*
Y379000D02*
D03*
Y369000D02*
D03*
Y453000D02*
D03*
Y443000D02*
D03*
Y433000D02*
D03*
X184000Y271500D02*
D03*
D60*
X366500Y283000D02*
D03*
Y146500D02*
D03*
X286500Y283000D02*
D03*
X332000Y293000D02*
D03*
X226500Y146500D02*
D03*
X286500D02*
D03*
D61*
X216500Y243874D02*
D03*
X226500D02*
D03*
X236500D02*
D03*
X246500D02*
D03*
X256500D02*
D03*
X266500D02*
D03*
X276500D02*
D03*
X286500D02*
D03*
X296500D02*
D03*
X306500D02*
D03*
X316500D02*
D03*
X326500D02*
D03*
X336500D02*
D03*
X346500D02*
D03*
X356500D02*
D03*
X366500D02*
D03*
X376500D02*
D03*
X386500D02*
D03*
X396500D02*
D03*
X406500D02*
D03*
Y183126D02*
D03*
X396500D02*
D03*
X386500D02*
D03*
X376500D02*
D03*
X366500D02*
D03*
X356500D02*
D03*
X346500D02*
D03*
X336500D02*
D03*
X326500D02*
D03*
X316500D02*
D03*
X306500D02*
D03*
X296500D02*
D03*
X286500D02*
D03*
X276500D02*
D03*
X266500D02*
D03*
X256500D02*
D03*
X246500D02*
D03*
X236500D02*
D03*
X226500D02*
D03*
D62*
X216500D02*
D03*
D63*
X443000Y283000D02*
D03*
X113000Y359000D02*
D03*
Y423000D02*
D03*
X184000Y261500D02*
D03*
D64*
X181500Y182000D02*
D03*
D65*
Y228063D02*
D03*
X220874Y395000D02*
D03*
X217874Y361000D02*
D03*
X441000Y324000D02*
D03*
D66*
X213000Y395000D02*
D03*
X210000Y361000D02*
D03*
X433126Y324000D02*
D03*
D67*
X215000Y436000D02*
D03*
X434000Y363000D02*
D03*
D68*
X201220Y436000D02*
D03*
X447780Y363000D02*
D03*
D69*
X208374Y334000D02*
D03*
Y324000D02*
D03*
Y314000D02*
D03*
Y304000D02*
D03*
X177626D02*
D03*
Y314000D02*
D03*
Y324000D02*
D03*
D70*
Y334000D02*
D03*
D71*
X448000Y469000D02*
D03*
Y449000D02*
D03*
Y429000D02*
D03*
X411000Y409000D02*
D03*
Y429000D02*
D03*
Y449000D02*
D03*
D72*
X448000Y409000D02*
D03*
X411000Y469000D02*
D03*
D73*
X487500Y231000D02*
D03*
Y251000D02*
D03*
X487000Y172000D02*
D03*
Y192000D02*
D03*
X132500Y318000D02*
D03*
Y298000D02*
D03*
D74*
X507500Y395000D02*
D03*
D75*
Y339488D02*
D03*
D76*
X180000Y474000D02*
D03*
X170000D02*
D03*
D77*
X160000D02*
D03*
D78*
X146000Y413000D02*
D03*
X141000D02*
D03*
D79*
X136000D02*
D03*
D80*
X176500Y373500D02*
D03*
X186500D02*
D03*
Y403500D02*
D03*
X176500D02*
D03*
D81*
X199000D02*
D03*
X194399Y364075D02*
D03*
X166200Y148000D02*
D03*
X131200Y382700D02*
D03*
X243600D02*
D03*
X250000Y452010D02*
D03*
X133800Y353700D02*
D03*
X232700Y402500D02*
D03*
X234000Y405300D02*
D03*
X274445D02*
D03*
X185055Y170245D02*
D03*
X111410Y166500D02*
D03*
X221500Y179500D02*
D03*
X110110Y217600D02*
D03*
X430100Y187400D02*
D03*
X135055Y142300D02*
D03*
X171300Y190000D02*
D03*
X141945Y166245D02*
D03*
X172100Y196400D02*
D03*
X195500Y311126D02*
D03*
X252400Y171800D02*
D03*
X471900Y284800D02*
D03*
X381800Y171800D02*
D03*
X135055Y213700D02*
D03*
M02*
