M48
;Layer_Color=9474304
;FILE_FORMAT=2:5
INCH,LZ
;TYPE=PLATED
T1F00S00C0.01181
T2F00S00C0.02953
T3F00S00C0.02984
T4F00S00C0.03087
T5F00S00C0.03150
T6F00S00C0.03268
T7F00S00C0.03937
T8F00S00C0.03976
T9F00S00C0.04331
T10F00S00C0.04528
T11F00S00C0.05000
T12F00S00C0.05039
T13F00S00C0.05118
T14F00S00C0.05866
T15F00S00C0.06299
T16F00S00C0.11811
%
T01
X0135055Y01423
X01662Y0148
X04719Y02848
X04301Y01874
X03818Y01718
X02524
X02215Y01795
X0185055Y0170245
X01713Y019
X01721Y01964
X01955Y0311126
X0135055Y02137
X011011Y02176
X011141Y01665
X0141945Y0166245
X01338Y03537
X01312Y03827
X0194399Y0364075
X0199Y04035
X02327Y04025
X0234Y04053
X02436Y03827
X0274445Y04053
X025Y045201
T02
X01815Y0182
Y0228063
X021Y0361
X0217874
X0220874Y0395
X0213
X0433126Y0324
X0441
T03
X0177626Y0304
X0208374
Y0314
Y0324
Y0334
X0177626
Y0324
Y0314
T04
X03165Y0183126
X03265
X03365
X03465
X03565
X03665
X03765
X03865
X03965
X04065
Y0243874
X03965
X03865
X03765
X03665
X03565
X03465
X03365
X03265
X03165
X03065
X02965
X02865
X02765
X02665
X02565
X02465
X02365
X02265
X02165
Y0183126
X02265
X02365
X02465
X02565
X02665
X02765
X02865
X02965
X03065
T05
X020122Y0436
X0215
X0434Y0363
X044778
T06
X0136Y0413
X0141
X0146
T07
X03215Y04375
X036087
T08
X0136Y0442063
X0146
X0141Y0447563
X01725Y04475
X01675Y0442
X01775
X0481Y03965
X0476Y0391
X0486
T09
X05075Y0339488
Y0395
T10
X02265Y01465
X02365
X02465
X02765
X02865
X03265
X03365
X03465
X03565
X03665
Y0283
X03765
X03865
X03965
X0443
Y0273
Y0263
X0332Y0283
Y0293
X0322
Y0283
X0312
Y0293
X02865Y0283
X02765
X02665
X0184Y02715
Y02615
X0113Y0359
Y0369
Y0379
Y0389
Y0423
Y0433
Y0443
Y0453
T11
X01765Y03735
X01865
Y04035
X01765
T12
X016Y0474
X017
X018
T13
X0306665Y0338236
Y0367764
X0366587
X0386587
X0406587
Y0338236
X0386587
X0366587
T14
X0411Y0409
Y0429
Y0449
X0448
Y0429
Y0409
Y0469
X0411
T15
X0487Y0172
Y0192
X04875Y0231
Y0251
X01325Y0298
Y0318
T16
X0113Y01135
X05145
X0515Y0502
X0113
M30
